<svg width="154" height="220" viewBox="0 0 154 220" fill="none" xmlns="http://www.w3.org/2000/svg">
<g opacity="0.5">
<path opacity="0.5" d="M154 160.522L67.1694 111.089V23.2212L154 72.6543V160.522Z" fill="url(#paint0_linear)"/>
</g>
<path d="M79.3641 44.3275L79.333 59.157L76.0105 57.2288L76.0415 42.4045L79.3641 44.3275Z" fill="#901B73"/>
<path d="M83.5703 51.2526L83.5496 61.5933L80.2271 59.6703L80.2477 49.3296L83.5703 51.2526Z" fill="url(#paint1_linear)"/>
<path d="M87.7917 51.8227L87.7659 64.0397L84.4434 62.1115L84.4692 49.8997L87.7917 51.8227Z" fill="url(#paint2_linear)"/>
<path d="M91.998 58.2033L91.9825 66.4292L88.6599 64.5062L88.6702 56.2803L91.998 58.2033Z" fill="white"/>
<g opacity="0.3">
<path opacity="0.3" d="M146.74 100.732L134.395 93.2371L134.302 73.271L146.74 80.8179V100.732Z" fill="#901B73"/>
</g>
<g opacity="0.3">
<path opacity="0.3" d="M146.74 110.751L140.715 107.097L140.694 101.815L146.74 105.485V110.751Z" fill="#901B73"/>
</g>
<g opacity="0.3">
<path opacity="0.3" d="M124.03 68.378L126.898 70.1196C127.714 70.6379 128.381 72.5506 128.391 74.4425C128.401 76.3344 127.745 77.4695 126.929 76.9719L124.061 75.2355C123.244 74.7172 122.578 72.7994 122.568 70.9075C122.557 69.0156 123.213 67.8804 124.03 68.378Z" fill="#901B73"/>
</g>
<g opacity="0.3">
<path opacity="0.3" d="M119.788 72.644L113.964 69.109L113.933 62.2515L119.757 65.7865L119.788 72.644Z" fill="#901B73"/>
</g>
<g opacity="0.3">
<path opacity="0.3" d="M112.202 68.0361L106.378 64.5011L106.347 57.6436L112.171 61.1786L112.202 68.0361Z" fill="#901B73"/>
</g>
<g opacity="0.3">
<path opacity="0.3" d="M104.617 63.4281L98.7878 59.8931L98.7568 53.0408L104.586 56.5758L104.617 63.4281Z" fill="#901B73"/>
</g>
<g opacity="0.3">
<path opacity="0.3" d="M146.74 121.248L140.761 117.614L140.741 112.333L146.74 115.976V121.248Z" fill="#901B73"/>
</g>
<g opacity="0.3">
<path opacity="0.3" d="M146.74 131.739L140.808 128.141L140.787 122.854L146.74 126.472V131.739Z" fill="#901B73"/>
</g>
<g opacity="0.3">
<path opacity="0.3" d="M146.74 142.23L140.854 138.658L140.834 133.377L146.74 136.964V142.23Z" fill="#901B73"/>
</g>
<path d="M81.7926 67.3571V70.8506L76.522 67.7873V64.2886L81.7926 67.3571Z" fill="#901B73"/>
<path d="M81.7926 76.6351L76.522 73.5665V70.073L81.7926 73.1363V76.6351Z" fill="#901B73"/>
<path d="M81.7926 82.4146L76.522 79.3461V75.8525L81.7926 78.9159V82.4146Z" fill="#901B73"/>
<path d="M81.7926 88.1939L76.522 85.1254V81.6318L81.7926 84.6952V88.1939Z" fill="#901B73"/>
<path d="M75.6385 63.7804V67.274L74.6567 66.7038V63.2051L75.6385 63.7804Z" fill="#901B73"/>
<path d="M75.6385 69.56V73.0535L74.6567 72.4833V68.9846L75.6385 69.56Z" fill="#901B73"/>
<path d="M75.6385 75.3392V78.8327L74.6567 78.2626V74.769L75.6385 75.3392Z" fill="#901B73"/>
<path d="M75.6385 81.1185V84.6121L74.6567 84.0419V80.5483L75.6385 81.1185Z" fill="#901B73"/>
<path d="M93.3673 75.6243C101.594 80.4915 106.802 117.645 113.918 122.124C120.149 126.047 118.77 88.0643 124.386 87.0483C129.931 86.048 133.517 128.447 131.786 142.961L82.4592 114.712C82.4592 114.712 85.6939 71.089 93.3673 75.6243Z" fill="white"/>
<path d="M88.8976 99.5866C94.1941 98.0938 95.9768 116.609 100.715 115.748C107.433 114.53 105.397 89.4014 111.096 91.2985C115.922 92.9001 117.116 117.863 118.961 124.663C121.41 133.698 122.108 124.368 125.678 123.736C130.685 122.844 132.881 131.692 131.734 142.914L82.4592 114.711C82.4592 114.711 82.4592 101.401 88.8976 99.5866Z" fill="url(#paint3_linear)"/>
<path d="M89.652 107.372C97.1446 111.99 96.7312 119.112 102.916 122.746C108.802 126.198 112.734 102.013 116.749 104.335C122.826 107.823 119.038 132.366 122.599 134.455C125.761 136.31 126.288 128.463 128.799 130.028C132.887 132.578 131.801 142.935 131.801 142.935L82.4592 114.712C82.4592 114.712 82.8003 103.143 89.652 107.372Z" fill="url(#paint4_linear)"/>
<g opacity="0.5">
<path opacity="0.5" d="M56.8193 85.0217L0 51.7449V0L56.8193 33.2768V85.0217Z" fill="url(#paint5_linear)"/>
</g>
<path d="M7.94203 9.55801L7.91619 21.293L5.3584 19.7691L5.38423 8.03931L7.94203 9.55801Z" fill="#901B73"/>
<path d="M11.1768 15.042L11.1561 23.2264L8.60352 21.7025L8.61902 13.5181L11.1768 15.042Z" fill="url(#paint6_linear)"/>
<path d="M14.4217 15.4929L14.4011 25.1597L11.8433 23.6358L11.8639 13.969L14.4217 15.4929Z" fill="url(#paint7_linear)"/>
<path d="M17.6513 20.5415L17.641 27.0517L15.0884 25.5278L15.0987 19.0176L17.6513 20.5415Z" fill="white"/>
<g opacity="0.3">
<path opacity="0.3" d="M51.0785 46.4992L44.1647 42.2541L44.1182 30.939L51.0785 35.2152V46.4992Z" fill="#901B73"/>
</g>
<g opacity="0.3">
<path opacity="0.3" d="M51.0784 52.1749L47.7093 50.1068L47.6938 47.1108L51.0784 49.1893V52.1749Z" fill="#901B73"/>
</g>
<g opacity="0.3">
<path opacity="0.3" d="M38.367 30.8718L39.974 31.8566C40.4287 32.1365 40.8059 33.2354 40.8111 34.3083C40.8162 35.3813 40.4494 36.024 39.9895 35.7389L38.3825 34.7541C37.9277 34.4742 37.5505 33.3753 37.5505 32.3024C37.5505 31.2294 37.9122 30.5919 38.367 30.8718Z" fill="#901B73"/>
</g>
<g opacity="0.3">
<path opacity="0.3" d="M35.9951 33.2872L32.7294 31.2864L32.7139 27.3989L35.9744 29.4049L35.9951 33.2872Z" fill="#901B73"/>
</g>
<g opacity="0.3">
<path opacity="0.3" d="M31.7475 30.68L28.4818 28.674L28.4663 24.7917L31.7268 26.7925L31.7475 30.68Z" fill="#901B73"/>
</g>
<g opacity="0.3">
<path opacity="0.3" d="M27.5002 28.0674L24.2397 26.0615L24.219 22.1792L27.4795 24.1851L27.5002 28.0674Z" fill="#901B73"/>
</g>
<g opacity="0.3">
<path opacity="0.3" d="M51.0785 58.1203L47.7352 56.0625L47.7197 53.0718L51.0785 55.1347V58.1203Z" fill="#901B73"/>
</g>
<g opacity="0.3">
<path opacity="0.3" d="M51.0785 64.0657L47.7559 62.0235L47.7456 59.0327L51.0785 61.0801V64.0657Z" fill="#901B73"/>
</g>
<g opacity="0.3">
<path opacity="0.3" d="M51.0785 70.0108L47.787 67.9842L47.7715 64.9934L51.0785 67.0253V70.0108Z" fill="#901B73"/>
</g>
<path d="M9.79704 26.0099V28.2439L6.521 26.2846V24.0454L9.79704 26.0099Z" fill="#901B73"/>
<path d="M9.79704 31.9446L6.521 29.9853V27.7461L9.79704 29.7054V31.9446Z" fill="#901B73"/>
<path d="M9.79704 35.6455L6.521 33.6811V31.4419L9.79704 33.4064V35.6455Z" fill="#901B73"/>
<path d="M9.79704 39.3462L6.521 37.3818V35.1426L9.79704 37.107V39.3462Z" fill="#901B73"/>
<path d="M5.96813 23.7186V25.9578L5.3584 25.5898V23.3506L5.96813 23.7186Z" fill="#901B73"/>
<path d="M5.96813 29.6538L5.3584 29.2909V27.0518L5.96813 27.4198V29.6538Z" fill="#901B73"/>
<path d="M5.96813 33.3545L5.3584 32.9916V30.7524L5.96813 31.1153V33.3545Z" fill="#901B73"/>
<path d="M5.96813 34.8162V37.0554L5.3584 36.6874V34.4534L5.96813 34.8162Z" fill="#901B73"/>
<path d="M22.2244 31.8565C22.815 31.615 23.4469 31.4917 24.0847 31.4937C27.278 31.4937 30.7401 34.3963 33.1894 39.1028L28.4613 44.3638L28.2598 43.9595C27.4072 42.2335 26.2859 41.2072 25.3248 41.2746C25.1292 41.2886 24.9397 41.349 24.7719 41.4508C24.4907 41.6636 24.2546 41.9304 24.0771 42.2356C23.8997 42.5408 23.7846 42.8784 23.7385 43.2287L17.8013 38.3512C18.5454 35.0183 20.1059 32.7169 22.2244 31.8565Z" fill="white"/>
<path d="M27.774 52.9423C27.9683 52.9298 28.1565 52.8693 28.3217 52.7661C29.6549 51.9678 29.9391 48.7801 28.9573 45.6649L33.7939 40.2847C34.3109 41.4045 34.7477 42.5599 35.1012 43.7419C37.6538 52.1492 35.9951 60.5099 31.4117 62.3707C30.8215 62.6139 30.1896 62.7389 29.5515 62.7387C27.8257 62.7387 25.981 61.8731 24.2292 60.2456L26.2962 52.3203C26.4888 52.5174 26.7188 52.674 26.9725 52.7808C27.2263 52.8876 27.4988 52.9425 27.774 52.9423Z" fill="url(#paint8_linear)"/>
<path d="M23.5628 44.5764C23.5295 45.9245 23.7234 47.2686 24.1364 48.552C24.4203 49.4669 24.8271 50.3388 25.3455 51.1436L23.227 59.1985C21.0524 56.6614 19.4517 53.6817 18.5351 50.4646C17.4292 46.9622 17.0977 43.26 17.5636 39.616L23.5628 44.5764Z" fill="#901B73"/>
<path d="M27.862 203.196L126.908 146.47C127.552 146.099 128.285 145.908 129.027 145.919C129.77 145.93 130.497 146.142 131.13 146.532L145.815 155.566C146.431 155.942 146.939 156.472 147.288 157.105C147.636 157.738 147.814 158.451 147.803 159.174C147.792 159.897 147.593 160.605 147.225 161.227C146.857 161.848 146.334 162.363 145.707 162.719L46.6553 219.451C46.0105 219.821 45.2782 220.01 44.5353 219.998C43.7923 219.986 43.0664 219.774 42.4337 219.383L27.7535 210.344C27.1385 209.968 26.6319 209.438 26.284 208.805C25.9361 208.173 25.7588 207.461 25.7698 206.739C25.7807 206.016 25.9795 205.31 26.3465 204.688C26.7135 204.067 27.2359 203.552 27.862 203.196Z" fill="url(#paint9_linear)"/>
<path d="M51.2023 84.6745C49.6935 83.3269 47.3424 83.5912 45.8904 85.1255C41.6467 89.995 36.4024 93.8852 30.5178 96.5288C27.3244 97.8764 27.4691 100.717 28.7867 102.37C29.0706 102.74 29.3834 103.087 29.722 103.407C31.8768 105.48 33.7628 105.035 35.8142 104.05C41.6377 101.256 46.9135 95.6061 51.4917 90.5731C52.2138 89.7814 52.5981 88.7375 52.5623 87.6651C52.5266 86.5926 52.0736 85.5768 51.3005 84.8352C51.2798 84.7419 51.2282 84.7005 51.2023 84.6745Z" fill="#DAF0F5"/>
<path d="M50.8202 60.3024C50.604 59.709 50.2241 59.1895 49.7248 58.8044L47.0223 57.0888C46.8583 57.3394 46.7964 57.6436 46.8493 57.9386C46.9022 58.2337 47.0658 58.4972 47.3065 58.6748C47.4822 58.7941 48.9393 60.0588 48.9393 60.0588C48.9393 60.0588 49.2494 60.5771 48.9755 60.8518C48.325 60.721 47.7299 60.3936 47.2703 59.9137C46.4952 58.9651 45.2706 56.1195 44.2268 54.2742C43.8961 53.6885 41.9222 52.6778 42.7076 54.5645C42.8575 54.9325 44.5782 57.3842 44.3146 58.058C43.8857 59.1517 43.2553 60.2402 43.431 61.7123C43.6532 63.5523 46.2834 65.2421 46.5624 65.5375C47.0533 66.0559 46.9189 72.0426 47.4305 76.0908L52.6494 74.8364C52.6494 74.8364 50.9236 65.5583 50.4068 63.1947C50.1846 62.1995 51.0889 61.2095 50.8202 60.3024Z" fill="#FFC4B1"/>
<path d="M46.0816 67.8028C46.8981 73.6081 46.309 82.5078 45.291 87.0536C45.1409 87.9262 45.3232 88.8235 45.8017 89.5676C46.2803 90.3117 47.0202 90.8482 47.8747 91.0706L48.3552 91.1639C50.1121 91.6097 52.3133 90.2206 52.6596 88.1991C53.8015 83.1143 53.0419 73.2764 51.9981 66.9216C50.355 67.611 48.6136 67.865 46.0816 67.8028Z" fill="#DAF0F5"/>
<path d="M40.2272 196.286C38.7621 196.315 37.3108 196.577 35.928 197.064C32.9724 197.966 24.0433 199.199 24.0433 199.199C24.0433 199.199 23.8728 202.926 23.8728 206.098C23.8728 208.363 26.2136 209.587 28.5233 209.587C30.0735 209.587 32.0216 208.156 32.0216 208.156L32.2283 206.637L33.1274 207.202C33.1274 207.202 41.8135 201.444 42.5008 199.946C43.188 198.448 41.9944 196.286 40.2272 196.286Z" fill="#103769"/>
<path d="M23.6142 203.558C31.2256 205.606 34.1193 200.858 34.1193 200.858L37.9792 142.624L22.834 144.697L23.6142 203.558Z" fill="url(#paint10_linear)"/>
<path d="M58.1834 206.301C56.7195 206.329 55.2696 206.593 53.8894 207.083C50.9337 207.98 42.0047 209.214 42.0047 209.214C42.0047 209.214 41.8394 212.94 41.8394 216.113C41.8394 218.383 44.1801 219.601 46.4899 219.601C48.0659 219.601 49.9881 218.17 49.9881 218.17L50.2 216.652L51.0991 217.222C51.0991 217.222 59.7853 211.458 60.4674 209.965C61.1494 208.472 59.9506 206.301 58.1834 206.301Z" fill="#103769"/>
<path d="M41.5708 213.573C49.177 215.646 52.0758 210.872 52.0758 210.872L52.329 147.745L36.7549 149.569L41.5708 213.573Z" fill="url(#paint11_linear)"/>
<path d="M53.5225 109.876C53.7292 106.688 53.1712 100.027 49.8744 97.7415C47.6525 96.1865 42.7746 94.9114 37.721 94.9114C23.8521 94.9114 23.3664 107.056 23.3664 110.254C23.3664 117.179 21.3459 144.241 21.3459 144.241C22.8083 145.179 25.2782 147.988 30.2233 149.004C33.9515 149.797 37.7494 150.214 41.5603 150.248C46.2987 150.248 50.6495 149.517 54.0961 147.838C54.0961 147.838 53.0781 116.593 53.5225 109.876Z" fill="url(#paint12_linear)"/>
<path d="M35.8555 86.6804C35.8555 86.6804 36.3723 92.4339 35.3078 94.9737C34.512 96.876 45.2651 97.8452 43.1879 95.124C42.1854 93.8074 43.9216 89.9977 43.9216 89.9977L35.8555 86.6804Z" fill="#FFC4B1"/>
<path d="M45.8957 74.8313C43.312 73.4733 36.7186 74.7691 35.1168 79.403C34.1557 82.1812 35.7265 86.359 35.7265 86.359C35.7265 86.359 39.4573 91.2468 41.147 92.356C41.5397 92.6152 44.2008 93.8851 45.5546 92.356C46.9085 90.827 48.6085 86.8151 48.2675 82.2694C47.9264 77.7236 47.6215 75.7332 45.8957 74.8313Z" fill="#FFC4B1"/>
<path d="M46.3918 74.7796C43.5911 71.7992 36.574 71.0787 32.8639 75.2979C29.1538 79.5171 30.9003 87.5253 33.7061 90.3917C35.37 92.1022 39.0026 93.2529 41.5604 91.7186C44.7124 89.8319 44.9036 80.5331 46.5416 80.0614C50.9441 78.7915 50.0709 74.1213 50.0709 74.1213C50.0709 74.1213 48.5775 77.1328 46.3918 74.7796Z" fill="url(#paint13_radial)"/>
<path d="M69.0347 101.79C62.8598 102.339 55.3569 99.7577 49.8744 97.7414C47.9471 97.1453 45.7406 99.0009 44.9035 101.582C44.7679 102.217 44.7209 102.868 44.764 103.516C44.8622 106.506 46.526 107.512 48.6756 108.243C54.7885 110.316 62.5032 109.979 69.293 109.565C70.3617 109.505 71.3647 109.028 72.0864 108.235C72.8082 107.443 73.1911 106.398 73.153 105.325C73.153 105.293 73.153 105.226 73.153 105.19C73.0031 103.168 71.1429 101.707 69.0347 101.79Z" fill="#DAF0F5"/>
<path d="M93.6463 86.8618C92.4851 87.3989 91.2887 87.8561 90.0654 88.2302C89.4102 88.3304 88.74 88.2292 88.1432 87.9399C88.107 87.5356 88.6599 87.3283 88.6599 87.3283C88.6599 87.3283 90.5822 87.2091 90.794 87.2194C91.0927 87.2256 91.3823 87.1167 91.6033 86.9152C91.8244 86.7137 91.9601 86.4349 91.9825 86.1361L88.7943 85.8562C88.1644 85.854 87.5473 86.034 87.0168 86.3746C86.252 86.9292 86.376 88.2716 85.5958 88.9299C83.751 90.4849 76.7649 96.8085 76.7649 96.8085L80.1495 100.986C83.007 98.0784 86.5258 93.2424 87.2286 93.1284C87.6316 93.0662 91.8275 93.0195 93.1193 91.6978C94.4111 90.3761 94.0649 89.9407 94.6695 88.0177C95.274 86.0947 93.6463 86.8618 93.6463 86.8618Z" fill="#FFC4B1"/>
<path d="M82.4954 90.7598C78.5992 95.1241 71.4322 100.411 67.3139 102.562C66.5536 103.006 65.9868 103.72 65.7256 104.562C65.4644 105.405 65.5278 106.315 65.9033 107.113L66.141 107.543C66.9367 109.181 69.4118 109.974 71.1739 108.932C75.7883 106.533 82.7951 99.6025 86.965 94.7146C85.389 93.9423 84.0662 92.7553 82.4954 90.7598Z" fill="#DAF0F5"/>
<defs>
<linearGradient id="paint0_linear" x1="73.0549" y1="119.221" x2="148.27" y2="64.7434" gradientUnits="userSpaceOnUse">
<stop stop-color="#8F1B73"/>
<stop offset="0.46" stop-color="#FF1F74"/>
<stop offset="0.51" stop-color="#FF3673"/>
<stop offset="0.6" stop-color="#FF5871"/>
<stop offset="0.7" stop-color="#FF7270"/>
<stop offset="0.79" stop-color="#FF856F"/>
<stop offset="0.89" stop-color="#FF906E"/>
<stop offset="1" stop-color="#FF946E"/>
</linearGradient>
<linearGradient id="paint1_linear" x1="83.5703" y1="55.4614" x2="80.2271" y2="55.4614" gradientUnits="userSpaceOnUse">
<stop stop-color="#E2F4F7"/>
<stop offset="0.09" stop-color="#C6EEF4"/>
<stop offset="0.34" stop-color="#80E0EE"/>
<stop offset="0.56" stop-color="#4AD6E9"/>
<stop offset="0.76" stop-color="#22CEE6"/>
<stop offset="0.91" stop-color="#0AC9E4"/>
<stop offset="1" stop-color="#01C7E3"/>
</linearGradient>
<linearGradient id="paint2_linear" x1="86.1175" y1="64.0345" x2="86.1175" y2="49.8945" gradientUnits="userSpaceOnUse">
<stop stop-color="#FF946E"/>
<stop offset="0.11" stop-color="#FF906E"/>
<stop offset="0.21" stop-color="#FF856F"/>
<stop offset="0.3" stop-color="#FF7270"/>
<stop offset="0.4" stop-color="#FF5871"/>
<stop offset="0.49" stop-color="#FF3673"/>
<stop offset="0.54" stop-color="#FF1F74"/>
<stop offset="1" stop-color="#8F1B73"/>
</linearGradient>
<linearGradient id="paint3_linear" x1="-36655.3" y1="19431.5" x2="-36655.3" y2="14268.5" gradientUnits="userSpaceOnUse">
<stop stop-color="#FF946E"/>
<stop offset="0.11" stop-color="#FF906E"/>
<stop offset="0.21" stop-color="#FF856F"/>
<stop offset="0.3" stop-color="#FF7270"/>
<stop offset="0.4" stop-color="#FF5871"/>
<stop offset="0.49" stop-color="#FF3673"/>
<stop offset="0.54" stop-color="#FF1F74"/>
<stop offset="1" stop-color="#8F1B73"/>
</linearGradient>
<linearGradient id="paint4_linear" x1="-34217.3" y1="13148.8" x2="-38953.9" y2="13148.8" gradientUnits="userSpaceOnUse">
<stop stop-color="#E2F4F7"/>
<stop offset="0.09" stop-color="#C6EEF4"/>
<stop offset="0.34" stop-color="#80E0EE"/>
<stop offset="0.56" stop-color="#4AD6E9"/>
<stop offset="0.76" stop-color="#22CEE6"/>
<stop offset="0.91" stop-color="#0AC9E4"/>
<stop offset="1" stop-color="#01C7E3"/>
</linearGradient>
<linearGradient id="paint5_linear" x1="53510.1" y1="18067.1" x2="47264" y2="15034.2" gradientUnits="userSpaceOnUse">
<stop stop-color="#8F1B73"/>
<stop offset="0.46" stop-color="#FF1F74"/>
<stop offset="0.51" stop-color="#FF3673"/>
<stop offset="0.6" stop-color="#FF5871"/>
<stop offset="0.7" stop-color="#FF7270"/>
<stop offset="0.79" stop-color="#FF856F"/>
<stop offset="0.89" stop-color="#FF906E"/>
<stop offset="1" stop-color="#FF946E"/>
</linearGradient>
<linearGradient id="paint6_linear" x1="2403.47" y1="1310.84" x2="2416.28" y2="1310.84" gradientUnits="userSpaceOnUse">
<stop stop-color="#E2F4F7"/>
<stop offset="0.09" stop-color="#C6EEF4"/>
<stop offset="0.34" stop-color="#80E0EE"/>
<stop offset="0.56" stop-color="#4AD6E9"/>
<stop offset="0.76" stop-color="#22CEE6"/>
<stop offset="0.91" stop-color="#0AC9E4"/>
<stop offset="1" stop-color="#01C7E3"/>
</linearGradient>
<linearGradient id="paint7_linear" x1="13.1351" y1="25.1546" x2="13.1351" y2="13.9638" gradientUnits="userSpaceOnUse">
<stop offset="0.01" stop-color="#01C7E3"/>
<stop offset="0.18" stop-color="#32C7DE"/>
<stop offset="0.37" stop-color="#63C6DA"/>
<stop offset="0.56" stop-color="#89C6D6"/>
<stop offset="0.73" stop-color="#A4C6D3"/>
<stop offset="0.88" stop-color="#B5C6D2"/>
<stop offset="0.99" stop-color="#BBC6D1"/>
</linearGradient>
<linearGradient id="paint8_linear" x1="-10465.8" y1="4962.44" x2="-10465.8" y2="3989.73" gradientUnits="userSpaceOnUse">
<stop offset="0.01" stop-color="#01C7E3"/>
<stop offset="0.18" stop-color="#32C7DE"/>
<stop offset="0.37" stop-color="#63C6DA"/>
<stop offset="0.56" stop-color="#89C6D6"/>
<stop offset="0.73" stop-color="#A4C6D3"/>
<stop offset="0.88" stop-color="#B5C6D2"/>
<stop offset="0.99" stop-color="#BBC6D1"/>
</linearGradient>
<linearGradient id="paint9_linear" x1="67.3967" y1="203.123" x2="124.855" y2="143.735" gradientUnits="userSpaceOnUse">
<stop stop-color="#E8E7ED"/>
<stop offset="1" stop-color="white"/>
</linearGradient>
<linearGradient id="paint10_linear" x1="5178.28" y1="30368.6" x2="5178.28" y2="23084" gradientUnits="userSpaceOnUse">
<stop stop-color="#E2F4F7"/>
<stop offset="0.09" stop-color="#C6EEF4"/>
<stop offset="0.34" stop-color="#80E0EE"/>
<stop offset="0.56" stop-color="#4AD6E9"/>
<stop offset="0.76" stop-color="#22CEE6"/>
<stop offset="0.91" stop-color="#0AC9E4"/>
<stop offset="1" stop-color="#01C7E3"/>
</linearGradient>
<linearGradient id="paint11_linear" x1="5764.3" y1="34067.1" x2="5764.3" y2="25575" gradientUnits="userSpaceOnUse">
<stop stop-color="#E2F4F7"/>
<stop offset="0.09" stop-color="#C6EEF4"/>
<stop offset="0.34" stop-color="#80E0EE"/>
<stop offset="0.56" stop-color="#4AD6E9"/>
<stop offset="0.76" stop-color="#22CEE6"/>
<stop offset="0.91" stop-color="#0AC9E4"/>
<stop offset="1" stop-color="#01C7E3"/>
</linearGradient>
<linearGradient id="paint12_linear" x1="10595.1" y1="18615.1" x2="12670.8" y2="18615.1" gradientUnits="userSpaceOnUse">
<stop stop-color="#FF946E"/>
<stop offset="0.11" stop-color="#FF906E"/>
<stop offset="0.21" stop-color="#FF856F"/>
<stop offset="0.3" stop-color="#FF7270"/>
<stop offset="0.4" stop-color="#FF5871"/>
<stop offset="0.49" stop-color="#FF3673"/>
<stop offset="0.54" stop-color="#FF1F74"/>
<stop offset="1" stop-color="#8F1B73"/>
</linearGradient>
<radialGradient id="paint13_radial" cx="0" cy="0" r="1" gradientUnits="userSpaceOnUse" gradientTransform="translate(31.0295 73.4164) scale(15.1143 15.1612)">
<stop stop-color="#FF946E"/>
<stop offset="0.19" stop-color="#FF5971"/>
<stop offset="0.34" stop-color="#FF2F73"/>
<stop offset="0.42" stop-color="#FF1F74"/>
<stop offset="1" stop-color="#8F1B73"/>
</radialGradient>
</defs>
</svg>
