<svg width="94" height="94" viewBox="0 0 94 94" fill="none" xmlns="http://www.w3.org/2000/svg">
<path d="M78.7212 43.6406C83.4083 26.1201 73.0039 8.11773 55.4837 3.43112C37.9632 -1.25552 19.9608 9.14838 15.2741 26.6688C10.5875 44.1893 20.9914 62.1917 38.5119 66.8782C56.0323 71.5653 74.0347 61.1609 78.7212 43.6406Z" fill="#9EE6F1"/>
<path d="M67.1753 35.5755C67.4083 24.4333 58.5648 15.212 47.4226 14.9791C36.2805 14.7462 27.0592 23.5899 26.8263 34.732C26.5934 45.8741 35.4371 55.0955 46.5792 55.3284C57.7213 55.5613 66.9428 46.7176 67.1753 35.5755Z" fill="white"/>
<path d="M52.6057 56.4004H41.5679V63.7008H52.6057V56.4004Z" fill="#9EE6F1"/>
<path d="M52.6057 83.8164H41.5679V90.5818H52.6057V83.8164Z" fill="#9EE6F1"/>
<path d="M46.9999 94C42.5819 94 38.9871 90.4055 38.9871 85.9875C38.9871 85.4434 38.5455 85.0018 38.0015 85.0018H36.5032C32.9113 85.0018 29.9887 82.0788 29.9887 78.4874C29.9887 77.0884 30.4531 75.7383 31.3275 74.5819C31.5924 74.2285 31.5924 73.7443 31.3275 73.3941C30.4531 72.2377 29.9887 70.8876 29.9887 69.4885C29.9887 65.8966 32.9113 62.9742 36.5032 62.9742H38.0015C38.5455 62.9742 38.9871 62.5325 38.9871 61.9885V57.2232C38.9871 56.8244 38.7449 56.4627 38.3747 56.3117C29.6383 52.7596 23.9927 44.3936 23.9927 34.9965C23.9927 22.3093 34.3127 11.9893 46.9999 11.9893C59.687 11.9893 70.0074 22.3093 70.0074 34.9965C70.0074 44.3936 64.3614 52.7596 55.6251 56.3117C55.2548 56.4627 55.0127 56.8244 55.0127 57.2232V61.9885C55.0127 62.5325 55.4542 62.9742 55.9983 62.9742H57.4965C61.0885 62.9742 64.0111 65.8966 64.0111 69.4885C64.0111 70.8876 63.5467 72.2377 62.6723 73.3941C62.4073 73.7475 62.4073 74.2317 62.6723 74.5819C63.5467 75.7383 64.0111 77.0884 64.0111 78.4874C64.0111 82.0788 61.0885 85.0018 57.4965 85.0018H55.9983C55.4542 85.0018 55.0127 85.4434 55.0127 85.9875C55.0127 90.4055 51.4179 94 46.9999 94ZM44.0004 85.0018C43.4563 85.0018 43.0149 85.4434 43.0149 85.9875C43.0149 88.1836 44.8009 89.9696 46.997 89.9696C49.1932 89.9696 50.9792 88.1836 50.9792 85.9875C50.9792 85.4434 50.5377 85.0018 49.9937 85.0018H44.0004ZM36.5032 76.0061C35.1559 76.0061 34.0193 77.1425 34.0193 78.49C34.0193 79.8376 35.1559 80.9739 36.5032 80.9739H57.4965C58.8439 80.9739 59.9804 79.8376 59.9804 78.49C59.9804 77.1425 58.8439 76.0061 57.4965 76.0061H36.5032ZM36.5032 67.0078C35.1559 67.0078 34.0193 68.1442 34.0193 69.4918C34.0193 70.8387 35.1559 71.9757 36.5032 71.9757H57.4965C58.8439 71.9757 59.9804 70.8387 59.9804 69.4918C59.9804 68.1442 58.8439 67.0078 57.4965 67.0078H36.5032ZM44.0004 57.8043C43.7611 57.8043 43.5304 57.8897 43.3481 58.0521C43.1373 58.2373 43.0149 58.5079 43.0149 58.7899V61.9975C43.0149 62.5416 43.4563 62.9826 44.0004 62.9826H49.9993C50.5434 62.9826 50.9849 62.5416 50.9849 61.9975V58.7899C50.9849 58.5079 50.8653 58.2401 50.6517 58.0521C50.4722 57.8925 50.2386 57.8043 49.9993 57.8043C49.9595 57.8043 49.9167 57.8071 49.8769 57.8128C48.783 57.9495 47.8687 58.0122 46.9999 58.0122C46.1311 58.0122 45.2167 57.9495 44.1229 57.8128C44.0831 57.8071 44.0403 57.8043 44.0004 57.8043ZM46.9999 16.0255C36.5345 16.0255 28.0204 24.5397 28.0204 35.005C28.0204 45.4703 36.5345 53.9845 46.9999 53.9845C57.4652 53.9845 65.9795 45.4703 65.9795 35.005C65.9795 24.5397 57.4652 16.0255 46.9999 16.0255Z" fill="#003575"/>
<path d="M82.9879 13.0262C82.4497 13.0262 81.9455 12.8154 81.5637 12.4366C80.7802 11.6504 80.7802 10.3714 81.5637 9.58808L84.5627 6.58865C84.9445 6.20698 85.4486 5.99902 85.9875 5.99902C86.5258 5.99902 87.0325 6.20982 87.4117 6.58865C88.1978 7.37484 88.1978 8.65382 87.4117 9.43711L84.4121 12.4366C84.0335 12.8183 83.5261 13.0262 82.9879 13.0262Z" fill="#032D6F"/>
<path d="M11.0123 13.0262C10.474 13.0262 9.96695 12.8154 9.58812 12.4366L6.58868 9.43711C5.80247 8.65098 5.80247 7.372 6.58868 6.58865C6.97034 6.20698 7.47453 5.99902 8.01291 5.99902C8.55128 5.99902 9.05547 6.20982 9.43714 6.58865L12.4366 9.58808C13.2199 10.3743 13.2199 11.6533 12.4366 12.4366C12.0549 12.8183 11.5507 13.0262 11.0123 13.0262Z" fill="#032D6F"/>
<path d="M8.01291 61.0118C7.47453 61.0118 6.96751 60.8006 6.58868 60.422C5.80247 59.6359 5.80247 58.3569 6.58868 57.5735L9.58812 54.5741C9.96978 54.1923 10.474 53.9844 11.0123 53.9844C11.5507 53.9844 12.0549 54.1952 12.4366 54.5741C13.2199 55.3602 13.2199 56.6363 12.4366 57.4225L9.43714 60.422C9.05547 60.8006 8.55128 61.0118 8.01291 61.0118Z" fill="#032D6F"/>
<path d="M85.9875 61.0118C85.4486 61.0118 84.9445 60.8006 84.5627 60.422L81.5637 57.4225C80.7802 56.6363 80.7802 55.3602 81.5637 54.5741C81.9455 54.1923 82.4497 53.9844 82.9879 53.9844C83.5261 53.9844 84.0335 54.1952 84.4121 54.5741L87.4117 57.5735C88.1978 58.3597 88.1978 59.6359 87.4117 60.422C87.0325 60.8006 86.5258 61.0118 85.9875 61.0118Z" fill="#032D6F"/>
<path d="M44.0004 43.0178C43.4621 43.0178 42.9579 42.807 42.5761 42.4281L36.5773 36.4292C35.7939 35.643 35.7939 34.364 36.5773 33.5807C36.9589 33.199 37.4631 32.9911 38.0015 32.9911C38.5399 32.9911 39.0469 33.2019 39.4257 33.5807L43.3025 37.4575C43.4962 37.6512 43.7469 37.7452 43.9975 37.7452C44.2482 37.7452 44.5017 37.6484 44.6926 37.4575L54.5683 27.5818C54.9499 27.2001 55.4541 26.9922 55.9925 26.9922C56.5309 26.9922 57.0351 27.203 57.4167 27.5818C58.2001 28.368 58.2001 29.647 57.4167 30.4303L45.4218 42.4252C45.0458 42.807 44.5387 43.0178 44.0004 43.0178Z" fill="#032D6F"/>
<path d="M67.9963 62.4675C67.3923 62.4675 66.8225 62.1997 66.4382 61.7355C66.0963 61.3221 65.9366 60.798 65.9881 60.2624C66.0396 59.7273 66.2959 59.2425 66.7118 58.901C73.87 52.9904 77.9744 44.2826 77.9744 35.0079C77.9744 17.9284 64.0797 4.03344 47.0001 4.03344C29.9206 4.03344 16.0257 17.9255 16.0257 35.005C16.0257 44.2797 20.1304 52.9875 27.2886 58.8981C27.7045 59.24 27.9609 59.7241 28.0121 60.2598C28.0634 60.7955 27.9039 61.3195 27.5621 61.7355C27.1775 62.1964 26.6107 62.4643 26.004 62.4643C25.5311 62.4643 25.0867 62.3046 24.7221 62.0059C16.6353 55.3261 11.9951 45.4846 11.9951 35.005C11.9951 15.7037 27.6988 0 47.0001 0C66.3017 0 82.0055 15.7037 82.0055 35.005C82.0055 45.4846 77.3647 55.3261 69.2781 62.0084C68.9163 62.302 68.4605 62.4675 67.9963 62.4675Z" fill="#032D6F"/>
<path d="M88.9866 37.0189C87.876 37.0189 86.9727 36.116 86.9727 35.0051C86.9727 33.8941 87.876 32.9912 88.9866 32.9912H91.9862C93.0975 32.9912 94.0001 33.8941 94.0001 35.0051C94.0001 36.116 93.0975 37.0189 91.9862 37.0189H88.9866Z" fill="#032D6F"/>
<path d="M2.01388 37.0189C0.902966 37.0189 0 36.116 0 35.0051C0 33.8941 0.902966 32.9912 2.01388 32.9912H5.01334C6.12424 32.9912 7.02721 33.8941 7.02721 35.0051C7.02721 36.116 6.12424 37.0189 5.01334 37.0189H2.01388Z" fill="#032D6F"/>
</svg>
