<svg width="283" height="202" viewBox="0 0 283 202" fill="none" xmlns="http://www.w3.org/2000/svg">
<path d="M251.937 61.246L146.651 0.703082C145.824 0.228864 144.885 -0.013793 143.931 0.000605438C142.978 0.0150039 142.047 0.285926 141.234 0.784909L108.865 20.6371C108.081 21.1178 107.435 21.7945 106.991 22.6007C106.546 23.4069 106.32 24.3148 106.333 25.2352C106.345 26.1556 106.597 27.0568 107.064 27.8503C107.53 28.6437 108.195 29.3021 108.993 29.7608L217.01 91.8767L252.064 70.3789C252.851 69.8987 253.499 69.2216 253.945 68.4145C254.39 67.6074 254.618 66.6981 254.605 65.7761C254.592 64.8542 254.339 63.9516 253.871 63.1572C253.404 62.3628 252.737 61.7041 251.937 61.246Z" fill="url(#paint0_linear)"/>
<path fill-rule="evenodd" clip-rule="evenodd" d="M259.062 118.12L272.909 101.337L265.097 96.759L259.062 118.12Z" fill="url(#paint1_linear)"/>
<path fill-rule="evenodd" clip-rule="evenodd" d="M265.751 94.4544L282.697 104.36L276.476 56.5139L265.751 94.4544Z" fill="url(#paint2_linear)"/>
<path fill-rule="evenodd" clip-rule="evenodd" d="M173.344 66.8105L259.062 118.121L276.476 56.5139L190.844 5.2583L173.344 66.8105Z" fill="#DAF0F5"/>
<path fill-rule="evenodd" clip-rule="evenodd" d="M181.842 63.4418L254.659 107.033L267.987 59.8869L195.234 16.3367L181.842 63.4418Z" fill="url(#paint3_linear)"/>
<path fill-rule="evenodd" clip-rule="evenodd" d="M191.625 25.5467L232.374 49.9403C232.677 49.0098 233.007 48.0825 233.365 47.1581L192.466 22.6646L191.625 25.5467Z" fill="#DAF0F5"/>
<path fill-rule="evenodd" clip-rule="evenodd" d="M188.835 35.5933L229.693 60.046C229.917 59.058 230.146 58.0715 230.379 57.0866L189.653 32.7112L188.835 35.5933Z" fill="#DAF0F5"/>
<path fill-rule="evenodd" clip-rule="evenodd" d="M186.045 45.6352L227.28 70.3379C227.312 70.206 227.353 70.0788 227.389 69.9515C227.607 69.1059 227.818 68.2574 228.021 67.4057L186.868 42.7712L186.045 45.6352Z" fill="#DAF0F5"/>
<path fill-rule="evenodd" clip-rule="evenodd" d="M183.255 55.6818L224.185 80.18C224.488 79.2435 224.8 78.3055 225.121 77.366L184.078 52.7952L183.255 55.6818Z" fill="#DAF0F5"/>
<path fill-rule="evenodd" clip-rule="evenodd" d="M187.286 68.7514L190.131 70.4562L204.677 19.2915L201.832 17.5913L187.286 68.7514Z" fill="#DAF0F5"/>
<path fill-rule="evenodd" clip-rule="evenodd" d="M196.211 74.3339L199.055 76.034L213.602 24.8739L210.757 23.1692L196.211 74.3339Z" fill="#DAF0F5"/>
<path fill-rule="evenodd" clip-rule="evenodd" d="M205.136 79.9118L207.98 81.6166L222.531 30.4519L219.682 28.7517L205.136 79.9118Z" fill="#DAF0F5"/>
<path fill-rule="evenodd" clip-rule="evenodd" d="M214.061 85.4943L226.944 92.7769L241.494 41.6122L228.607 34.3296L214.061 85.4943Z" fill="#DAF0F5"/>
<path fill-rule="evenodd" clip-rule="evenodd" d="M265.097 96.7591L272.909 101.337L282.697 104.36L265.752 94.4543L265.097 96.7591Z" fill="url(#paint4_linear)"/>
<path d="M196.461 54.1362L195.302 54.2317L195.961 58.6413L196.074 59.3777L196.674 58.9822L205.472 53.1543L196.82 57.8094L196.461 54.1362Z" fill="white"/>
<path d="M219.886 45.4898L218.732 45.5853L219.5 50.7313L228.902 44.5125L220.245 49.1675L219.886 45.4898Z" fill="white"/>
<path d="M203.254 69.238L202.1 69.3289L202.868 74.4795L212.27 68.2561L203.618 72.9112L203.254 69.238Z" fill="white"/>
<path d="M229.693 162.894L114.014 96.3727C113.107 95.8501 112.075 95.5823 111.028 95.5975C109.981 95.6127 108.958 95.9104 108.066 96.459L72.4978 118.28C71.6356 118.808 70.9257 119.551 70.4377 120.437C69.9498 121.323 69.7007 122.32 69.7149 123.332C69.7291 124.343 70.0062 125.333 70.5188 126.205C71.0314 127.076 71.762 127.8 72.6387 128.303L191.317 196.543L229.834 172.904C230.692 172.374 231.398 171.631 231.883 170.746C232.368 169.862 232.615 168.867 232.601 167.859C232.587 166.85 232.311 165.863 231.802 164.992C231.292 164.122 230.565 163.399 229.693 162.894Z" fill="url(#paint5_linear)"/>
<path d="M188.263 188.101L217.978 170.94L181.024 168.599L188.263 188.101Z" fill="#DAF0F5"/>
<path d="M145.183 163.053L178.647 167.53L174.893 145.896L145.183 163.053Z" fill="#DAF0F5"/>
<path d="M177.993 169.067L177.661 166.571L176.275 166.417L176.511 169.926L182.555 170.072L182.301 169.272L177.993 169.067Z" fill="#DAF0F5"/>
<path d="M177.993 169.067L217.978 170.94L174.894 145.896L177.993 169.067Z" fill="white"/>
<path d="M176.511 169.926L176.275 166.417L145.183 163.053L188.263 188.101L182.555 170.072L176.511 169.926Z" fill="white"/>
<path d="M145.183 163.053L145.192 165.712L188.272 190.756L188.263 188.101L145.183 163.053Z" fill="url(#paint6_linear)"/>
<path d="M188.263 188.101L188.272 190.756L217.987 173.599L217.978 170.94L188.263 188.101Z" fill="url(#paint7_linear)"/>
<path d="M197.715 187.246L227.43 170.085L190.476 167.744L197.715 187.246Z" fill="#DAF0F5"/>
<path d="M154.635 162.198L188.104 166.676L184.346 145.037L154.635 162.198Z" fill="#DAF0F5"/>
<path d="M187.445 168.212L187.113 165.712L185.727 165.562L185.963 169.067L192.007 169.212L191.753 168.417L187.445 168.212Z" fill="#DAF0F5"/>
<path d="M187.445 168.212L227.43 170.085L184.345 145.037L187.445 168.212Z" fill="white"/>
<path d="M185.963 169.067L185.727 165.562L154.635 162.198L197.715 187.246L192.007 169.212L185.963 169.067Z" fill="white"/>
<path d="M154.635 162.198L154.644 164.857L197.724 189.901L197.715 187.246L154.635 162.198Z" fill="url(#paint8_linear)"/>
<path d="M197.715 187.246L197.724 189.901L227.434 172.745L227.43 170.085L197.715 187.246Z" fill="url(#paint9_linear)"/>
<path d="M185.327 176.222L215.042 159.061L178.088 156.72L185.327 176.222Z" fill="#DAF0F5"/>
<path d="M142.248 151.179L175.711 155.652L171.958 134.018L142.248 151.179Z" fill="#DAF0F5"/>
<path d="M175.057 157.193L174.721 154.693L173.339 154.542L173.576 158.047L179.62 158.193L179.365 157.393L175.057 157.193Z" fill="#DAF0F5"/>
<path d="M175.057 157.193L215.042 159.061L171.958 134.018L175.057 157.193Z" fill="white"/>
<path d="M173.576 158.048L173.339 154.543L142.248 151.179L185.327 176.222L179.62 158.193L173.576 158.048Z" fill="white"/>
<path d="M142.248 151.179L142.257 153.838L185.336 178.882L185.327 176.222L142.248 151.179Z" fill="url(#paint10_linear)"/>
<path d="M185.327 176.222L185.336 178.882L215.051 161.721L215.042 159.061L185.327 176.222Z" fill="url(#paint11_linear)"/>
<path d="M189.235 161.766L218.946 144.605L181.996 142.264L189.235 161.766Z" fill="#DAF0F5"/>
<path d="M146.156 136.718L179.62 141.191L175.866 119.557L146.156 136.718Z" fill="#DAF0F5"/>
<path d="M178.961 142.732L178.629 140.232L177.248 140.082L177.479 143.587L183.523 143.737L183.269 142.937L178.961 142.732Z" fill="#DAF0F5"/>
<path d="M178.961 142.732L218.946 144.605L175.866 119.557L178.961 142.732Z" fill="white"/>
<path d="M177.479 143.587L177.248 140.082L146.156 136.718L189.235 161.766L183.523 143.737L177.479 143.587Z" fill="white"/>
<path d="M146.156 136.718L146.16 139.377L189.244 164.421L189.235 161.766L146.156 136.718Z" fill="url(#paint12_linear)"/>
<path d="M189.235 161.766L189.244 164.421L218.955 147.265L218.946 144.605L189.235 161.766Z" fill="url(#paint13_linear)"/>
<path d="M105.339 176.559L25.2011 130.558C23.5276 129.595 21.6254 129.101 19.6949 129.128C17.7644 129.155 15.8769 129.703 14.2312 130.713L5.51986 136.054C3.92863 137.031 2.6187 138.405 1.71876 140.041C0.818819 141.677 0.359827 143.519 0.386872 145.386C0.413917 147.253 0.926069 149.082 1.87302 150.691C2.81996 152.3 4.16913 153.635 5.78797 154.565L85.9306 200.566C87.6034 201.529 89.5047 202.022 91.4344 201.995C93.3642 201.968 95.2508 201.421 96.8959 200.411L105.607 195.07C107.198 194.093 108.508 192.72 109.408 191.083C110.308 189.447 110.767 187.605 110.74 185.738C110.713 183.871 110.201 182.043 109.254 180.433C108.307 178.824 106.958 177.489 105.339 176.559Z" fill="url(#paint14_linear)"/>
<path d="M127.647 85.2531C127.557 85.2829 127.463 85.2934 127.369 85.284C127.275 85.2746 127.184 85.2455 127.102 85.1986C126.96 85.1164 126.851 84.988 126.793 84.8349C126.791 84.8122 126.791 84.7894 126.793 84.7667C126.77 84.6758 124.616 75.9158 122.335 69.6924C120.408 64.4463 119.44 63.8735 119.263 63.8145C118.549 63.5644 116.732 63.3599 115.691 64.269C114.873 64.9828 114.65 66.292 115.028 68.1649C115.55 70.7607 116.645 76.1613 118.463 81.1209C121.235 88.6853 124.425 91.8721 127.938 90.581C131.342 89.3309 143.843 84.5576 146.651 83.3302L144.597 79.6344L127.647 85.2531Z" fill="#FFC4B1"/>
<path d="M128.174 83.2895C127.524 80.7393 125.779 74.1476 123.93 69.1016C121.903 63.5647 120.712 62.5055 119.817 62.1963C118.558 61.7417 116.114 61.6008 114.555 62.9646C113.242 64.1102 112.833 65.9695 113.342 68.4834C113.869 71.12 114.978 76.5979 116.845 81.6939C120.026 90.3312 123.934 93.8498 128.519 92.1496C131.7 90.9813 141.72 86.8036 145.588 85.1488C144.284 83.1264 143.188 80.9774 142.316 78.7345L128.174 83.2895Z" fill="url(#paint15_linear)"/>
<path d="M154.344 77.1251C153.072 77.6126 151.768 78.0136 150.441 78.3252C149.735 78.3827 149.028 78.2241 148.414 77.8706C148.414 77.416 148.996 77.2569 148.996 77.2569C148.996 77.2569 151.05 77.2569 151.268 77.2933C151.587 77.3288 151.908 77.24 152.163 77.0454C152.419 76.8507 152.59 76.565 152.64 76.2477L149.268 75.7295C148.599 75.6848 147.93 75.8331 147.342 76.1568C146.487 76.6932 146.347 78.2161 145.601 79.0025C145.282 79.2532 144.943 79.4782 144.588 79.6753L146.665 83.3121C147.096 83.3121 152 83.5349 153.481 82.2211C154.962 80.9073 154.603 80.4027 155.399 78.4252C156.194 76.4477 154.344 77.1251 154.344 77.1251Z" fill="#FFC4B1"/>
<path d="M150.046 118.552L179.761 101.391L142.807 99.0503L150.046 118.552Z" fill="#DAF0F5"/>
<path d="M106.966 93.5089L140.43 97.9821L136.676 76.3479L106.966 93.5089Z" fill="#DAF0F5"/>
<path d="M139.776 99.5185L139.439 97.0228L138.058 96.8728L138.294 100.378L144.338 100.523L144.084 99.7231L139.776 99.5185Z" fill="#DAF0F5"/>
<path d="M139.776 99.5186L179.761 101.392L136.677 76.3479L139.776 99.5186Z" fill="white"/>
<path d="M138.294 100.378L138.058 96.8728L106.966 93.5088L150.045 118.552L144.338 100.523L138.294 100.378Z" fill="white"/>
<path d="M106.966 93.5088L106.975 96.1636L150.054 121.212L150.045 118.552L106.966 93.5088Z" fill="url(#paint16_linear)"/>
<path d="M150.046 118.552L150.055 121.212L179.77 104.051L179.761 101.391L150.046 118.552Z" fill="url(#paint17_linear)"/>
<path d="M153.822 114.629L183.537 97.4681L146.583 95.127L153.822 114.629Z" fill="#DAF0F5"/>
<path d="M110.742 89.5809L144.206 94.0541L140.453 72.4199L110.742 89.5809Z" fill="#DAF0F5"/>
<path d="M143.552 95.5954L143.215 93.0951L141.834 92.9451L142.07 96.45L148.11 96.6L147.855 95.7954L143.552 95.5954Z" fill="#DAF0F5"/>
<path d="M143.552 95.5952L183.537 97.4681L140.453 72.4199L143.552 95.5952Z" fill="white"/>
<path d="M142.07 96.45L141.834 92.9451L110.742 89.5811L153.822 114.629L148.11 96.6L142.07 96.45Z" fill="white"/>
<path d="M110.742 89.5811L110.747 92.2404L153.831 117.284L153.822 114.629L110.742 89.5811Z" fill="url(#paint18_linear)"/>
<path d="M153.822 114.629L153.831 117.284L183.541 100.123L183.537 97.468L153.822 114.629Z" fill="url(#paint19_linear)"/>
<path d="M74.1338 112.311C74.1338 112.311 78.3918 133.899 78.3918 139.1C78.3918 143.01 76.6422 145.037 76.4514 153.806C76.2605 162.575 75.9379 171.344 74.3837 173.145C74.3837 173.145 76.565 175.39 78.5008 177.568C79.8641 179.109 81.141 183.046 83.4223 181.173C84.0994 180.618 85.7489 179.045 84.9582 178.682C83.1951 177.886 81.9681 174.217 81.6727 171.731C81.032 166.276 89.4252 144.251 89.3389 138.141C89.3162 136.686 91.7065 116.843 91.1566 115.802C88.8345 111.252 76.4332 111.379 74.1338 112.311Z" fill="#FFC4B1"/>
<path d="M91.679 179.691C89.4838 179.103 87.2292 178.764 84.9581 178.682C84.9581 178.682 84.0265 182.737 80.6546 179.968C77.4737 177.373 76.9284 172.74 75.0743 171.913C75.047 171.913 72.016 173.245 73.2566 178.1C73.8355 180.352 74.1527 182.663 74.2018 184.987C74.3586 185.206 74.5919 185.358 74.8553 185.412C75.1188 185.467 75.3932 185.421 75.6241 185.282L75.6878 179.582C77.6271 180.91 79.3696 182.504 80.8637 184.319C81.5953 185.269 82.6814 185.487 83.8856 185.378C88.9161 184.923 91.988 180.832 92.1425 180.582C92.1829 180.494 92.2026 180.398 92.2001 180.301C92.1977 180.204 92.1732 180.109 92.1285 180.023C92.0838 179.937 92.0201 179.863 91.9422 179.805C91.8643 179.747 91.7743 179.708 91.679 179.691Z" fill="#FF1F74"/>
<path d="M85.2217 117.893C85.2217 117.893 90.6521 141.346 90.6521 146.532C90.6521 150.442 88.2572 152.674 88.0664 161.443C87.8755 170.212 88.1982 178.772 86.644 180.573C86.644 180.573 88.8207 182.818 90.7566 185C92.1199 186.541 93.3968 190.478 95.6826 188.601C96.3551 188.051 98.0092 186.478 97.214 186.114C95.4554 185.319 94.2239 181.65 93.933 179.163C93.5604 176.022 99.9633 154.229 99.8406 146.432C99.8406 144.978 105.003 120.721 104.471 119.675C102.145 115.12 87.5211 116.961 85.2217 117.893Z" fill="#FFC4B1"/>
<path d="M103.94 187.137C101.743 186.549 99.4866 186.21 97.214 186.128C97.214 186.128 96.3052 190.183 92.9151 187.414C89.7342 184.819 89.1889 180.186 87.3348 179.359C87.3075 179.359 84.2765 180.691 85.5171 185.546C86.0956 187.796 86.4143 190.106 86.4668 192.428C86.6223 192.649 86.8553 192.802 87.1191 192.858C87.3829 192.914 87.658 192.867 87.8892 192.729L87.9483 187.028C89.8812 188.357 91.6188 189.95 93.1105 191.76C93.8376 192.715 94.9283 192.929 96.1325 192.819C101.163 192.365 104.235 188.273 104.385 188.028C104.426 187.941 104.447 187.846 104.446 187.75C104.445 187.654 104.422 187.56 104.38 187.474C104.337 187.388 104.275 187.313 104.198 187.255C104.122 187.196 104.034 187.156 103.94 187.137Z" fill="#FF1F74"/>
<path d="M123.966 60.3369C123.443 59.1984 122.742 58.1503 121.889 57.232C120.839 56.1001 119.381 55.1 117.568 55.1182C107.257 55.2364 100.663 72.4655 96.2778 77.4615C96.2778 77.4615 92.4379 92.0085 108.343 94.8407L118.14 84.9669C119.12 85.4023 120.215 85.5046 121.258 85.2583C122.301 85.012 123.235 84.4306 123.916 83.6031C126.524 80.63 126.57 75.734 124.961 70.2744C124.012 67.0531 123.674 63.6825 123.966 60.3369Z" fill="url(#paint20_linear)"/>
<path d="M143.375 46.3445C141.556 44.7516 139.18 43.9455 136.768 44.1032C134.356 44.2609 132.105 45.3694 130.51 47.1855C130.48 47.2269 130.449 47.2663 130.414 47.3037L127.07 51.1177C124.566 53.9771 128.528 64.9465 129.433 65.6648C129.899 66.0518 130.477 66.2768 131.082 66.3058C135.09 66.4921 140.625 64.5692 142.607 61.4461C143.77 59.6277 145.079 58.7504 145.947 57.3548C148.373 53.518 146.896 49.4266 143.375 46.3445Z" fill="#FFC4B1"/>
<path d="M96.2505 77.2295C93.6785 78.7433 84.3582 80.3298 79.8912 89.6945C76.9647 95.8133 69.8938 114.443 69.8938 114.443C73.4701 119.239 89.6341 128.08 107.261 126.739C107.261 126.739 106.561 104.919 107.575 97.7635C107.694 96.7636 107.949 95.7846 108.334 94.8541C94.3238 90.1673 96.2505 77.2295 96.2505 77.2295Z" fill="#DAF0F5"/>
<path d="M113.469 93.186C113.385 93.0503 113.351 92.8895 113.374 92.7314C113.371 92.7072 113.371 92.6829 113.374 92.6587C113.396 92.5678 115.777 83.8714 116.814 77.3207C117.686 71.7973 117.118 70.8291 116.991 70.6927C116.486 70.1244 115.009 69.047 113.655 69.3289C112.596 69.5562 111.765 70.5927 111.183 72.411C110.379 74.9295 108.707 80.1801 107.88 85.3988C106.621 93.3588 107.857 97.6729 111.551 98.2775C115.132 98.8412 128.365 100.755 131.428 101.06V96.8273L113.892 93.5042C113.803 93.4825 113.72 93.4431 113.648 93.3884C113.575 93.3337 113.514 93.2649 113.469 93.186Z" fill="#FFC4B1"/>
<path d="M115.327 92.0313C115.995 89.4901 117.681 82.8849 118.508 77.5752C119.417 71.7519 118.904 70.2426 118.277 69.538C117.368 68.5424 115.332 67.215 113.305 67.6469C111.601 68.006 110.338 69.4289 109.556 71.8791C108.738 74.4385 107.039 79.7618 106.193 85.1215C104.753 94.2134 106.471 99.2139 111.288 99.9595C114.632 100.491 125.42 101.719 129.605 102.16C129.451 99.7582 129.539 97.3472 129.869 94.9635L115.327 92.0313Z" fill="url(#paint21_linear)"/>
<path d="M141.184 99.3956C139.834 99.2011 138.498 98.9171 137.185 98.5455C136.542 98.2588 136.002 97.7831 135.636 97.1817C135.831 96.7999 136.44 96.9317 136.44 96.9317C136.44 96.9317 138.231 97.9364 138.412 98.0682C138.944 98.45 139.848 98.2864 140.103 97.7863L137.413 95.6952C136.85 95.3285 136.194 95.1312 135.522 95.127C134.513 95.1815 133.65 96.4407 132.614 96.768C132.214 96.8308 131.81 96.8628 131.405 96.8635L131.446 101.059C131.814 101.282 135.99 103.851 137.917 103.414C139.844 102.978 139.776 102.387 141.439 101.032C143.102 99.6774 141.184 99.3956 141.184 99.3956Z" fill="#FFC4B1"/>
<path d="M148.76 49.8813C148.76 49.8813 149.214 49.3949 147.928 45.9127C146.924 43.1352 142.629 37.43 137.126 37.5573C131.623 37.6846 125.238 40.3258 121.907 46.34C118.577 52.3543 115.091 54.6364 112.524 55.1546C104.753 56.7185 102.263 61.9736 101.245 64.8239C96.7414 77.3525 105.189 94.0771 105.189 94.0771C105.189 94.0771 108.984 77.0116 120.826 71.8292C129.069 68.2197 127.697 63.2828 128.851 59.7551C130.005 56.2275 133.518 58.7187 140.612 56.6639C143.793 55.7547 146.974 51.7134 146.974 51.7134C146.974 51.7134 147.819 55.5411 143.534 60.1325C143.534 60.1325 151.636 59.5688 151.636 52.2543C151.65 49.6404 148.76 49.8813 148.76 49.8813Z" fill="url(#paint22_linear)"/>
<defs>
<linearGradient id="paint0_linear" x1="202.082" y1="67.9286" x2="138.192" y2="1.70872" gradientUnits="userSpaceOnUse">
<stop stop-color="#E8E7ED"/>
<stop offset="1" stop-color="white"/>
</linearGradient>
<linearGradient id="paint1_linear" x1="259.062" y1="107.442" x2="272.909" y2="107.442" gradientUnits="userSpaceOnUse">
<stop stop-color="#01C7E3"/>
<stop offset="0.09" stop-color="#0AC9E4"/>
<stop offset="0.24" stop-color="#22CEE6"/>
<stop offset="0.44" stop-color="#4AD6E9"/>
<stop offset="0.66" stop-color="#80E0EE"/>
<stop offset="0.91" stop-color="#C6EEF4"/>
<stop offset="1" stop-color="#E2F4F7"/>
</linearGradient>
<linearGradient id="paint2_linear" x1="10161.3" y1="8522.89" x2="10793.2" y2="8522.89" gradientUnits="userSpaceOnUse">
<stop stop-color="#01C7E3"/>
<stop offset="0.09" stop-color="#0AC9E4"/>
<stop offset="0.24" stop-color="#22CEE6"/>
<stop offset="0.44" stop-color="#4AD6E9"/>
<stop offset="0.66" stop-color="#80E0EE"/>
<stop offset="0.91" stop-color="#C6EEF4"/>
<stop offset="1" stop-color="#E2F4F7"/>
</linearGradient>
<linearGradient id="paint3_linear" x1="181.842" y1="61.6871" x2="267.987" y2="61.6871" gradientUnits="userSpaceOnUse">
<stop stop-color="#8F1B73"/>
<stop offset="0.46" stop-color="#FF1F74"/>
<stop offset="0.51" stop-color="#FF3673"/>
<stop offset="0.6" stop-color="#FF5871"/>
<stop offset="0.7" stop-color="#FF7270"/>
<stop offset="0.79" stop-color="#FF856F"/>
<stop offset="0.89" stop-color="#FF906E"/>
<stop offset="1" stop-color="#FF946E"/>
</linearGradient>
<linearGradient id="paint4_linear" x1="265.102" y1="99.4049" x2="282.697" y2="99.4049" gradientUnits="userSpaceOnUse">
<stop stop-color="#002D6D"/>
<stop offset="1" stop-color="#15CEF4"/>
</linearGradient>
<linearGradient id="paint5_linear" x1="78258.8" y1="45697.8" x2="64521.8" y2="22713.4" gradientUnits="userSpaceOnUse">
<stop stop-color="#E8E7ED"/>
<stop offset="1" stop-color="white"/>
</linearGradient>
<linearGradient id="paint6_linear" x1="145.183" y1="176.904" x2="188.272" y2="176.904" gradientUnits="userSpaceOnUse">
<stop offset="0.01" stop-color="#BBC6D1"/>
<stop offset="0.12" stop-color="#B0C6D2"/>
<stop offset="0.31" stop-color="#92C6D5"/>
<stop offset="0.56" stop-color="#62C6DA"/>
<stop offset="0.86" stop-color="#21C7E0"/>
<stop offset="0.99" stop-color="#01C7E3"/>
</linearGradient>
<linearGradient id="paint7_linear" x1="12477.4" y1="8054.26" x2="14421.6" y2="8054.26" gradientUnits="userSpaceOnUse">
<stop offset="0.01" stop-color="#BBC6D1"/>
<stop offset="0.12" stop-color="#B0C6D2"/>
<stop offset="0.31" stop-color="#92C6D5"/>
<stop offset="0.56" stop-color="#62C6DA"/>
<stop offset="0.86" stop-color="#21C7E0"/>
<stop offset="0.99" stop-color="#01C7E3"/>
</linearGradient>
<linearGradient id="paint8_linear" x1="14780.7" y1="10890.7" x2="18866.3" y2="10890.7" gradientUnits="userSpaceOnUse">
<stop offset="0.01" stop-color="#BBC6D1"/>
<stop offset="0.12" stop-color="#B0C6D2"/>
<stop offset="0.31" stop-color="#92C6D5"/>
<stop offset="0.56" stop-color="#62C6DA"/>
<stop offset="0.86" stop-color="#21C7E0"/>
<stop offset="0.99" stop-color="#01C7E3"/>
</linearGradient>
<linearGradient id="paint9_linear" x1="13103.1" y1="8016.15" x2="15047.1" y2="8016.15" gradientUnits="userSpaceOnUse">
<stop offset="0.01" stop-color="#BBC6D1"/>
<stop offset="0.12" stop-color="#B0C6D2"/>
<stop offset="0.31" stop-color="#92C6D5"/>
<stop offset="0.56" stop-color="#62C6DA"/>
<stop offset="0.86" stop-color="#21C7E0"/>
<stop offset="0.99" stop-color="#01C7E3"/>
</linearGradient>
<linearGradient id="paint10_linear" x1="13593.7" y1="10208.2" x2="17679.3" y2="10208.2" gradientUnits="userSpaceOnUse">
<stop offset="0.01" stop-color="#BBC6D1"/>
<stop offset="0.12" stop-color="#B0C6D2"/>
<stop offset="0.31" stop-color="#92C6D5"/>
<stop offset="0.56" stop-color="#62C6DA"/>
<stop offset="0.86" stop-color="#21C7E0"/>
<stop offset="0.99" stop-color="#01C7E3"/>
</linearGradient>
<linearGradient id="paint11_linear" x1="12282.4" y1="7526.28" x2="14226.7" y2="7526.28" gradientUnits="userSpaceOnUse">
<stop offset="0.01" stop-color="#BBC6D1"/>
<stop offset="0.12" stop-color="#B0C6D2"/>
<stop offset="0.31" stop-color="#92C6D5"/>
<stop offset="0.56" stop-color="#62C6DA"/>
<stop offset="0.86" stop-color="#21C7E0"/>
<stop offset="0.99" stop-color="#01C7E3"/>
</linearGradient>
<linearGradient id="paint12_linear" x1="13968.1" y1="9312.51" x2="18053.8" y2="9312.51" gradientUnits="userSpaceOnUse">
<stop offset="0.01" stop-color="#BBC6D1"/>
<stop offset="0.12" stop-color="#B0C6D2"/>
<stop offset="0.31" stop-color="#92C6D5"/>
<stop offset="0.56" stop-color="#62C6DA"/>
<stop offset="0.86" stop-color="#21C7E0"/>
<stop offset="0.99" stop-color="#01C7E3"/>
</linearGradient>
<linearGradient id="paint13_linear" x1="12540.1" y1="6879.8" x2="14483.7" y2="6879.8" gradientUnits="userSpaceOnUse">
<stop offset="0.01" stop-color="#BBC6D1"/>
<stop offset="0.12" stop-color="#B0C6D2"/>
<stop offset="0.31" stop-color="#92C6D5"/>
<stop offset="0.56" stop-color="#62C6DA"/>
<stop offset="0.86" stop-color="#21C7E0"/>
<stop offset="0.99" stop-color="#01C7E3"/>
</linearGradient>
<linearGradient id="paint14_linear" x1="28347.4" y1="35283.3" x2="20638" y2="23176.7" gradientUnits="userSpaceOnUse">
<stop stop-color="#E8E7ED"/>
<stop offset="1" stop-color="white"/>
</linearGradient>
<linearGradient id="paint15_linear" x1="113.128" y1="77.2298" x2="145.588" y2="77.2298" gradientUnits="userSpaceOnUse">
<stop stop-color="#00CBF2"/>
<stop offset="0.2" stop-color="#00AFD9"/>
<stop offset="0.62" stop-color="#016999"/>
<stop offset="1" stop-color="#01275D"/>
</linearGradient>
<linearGradient id="paint16_linear" x1="10213" y1="6636.13" x2="14298.7" y2="6636.13" gradientUnits="userSpaceOnUse">
<stop offset="0.01" stop-color="#BBC6D1"/>
<stop offset="0.12" stop-color="#B0C6D2"/>
<stop offset="0.31" stop-color="#92C6D5"/>
<stop offset="0.56" stop-color="#62C6DA"/>
<stop offset="0.86" stop-color="#21C7E0"/>
<stop offset="0.99" stop-color="#01C7E3"/>
</linearGradient>
<linearGradient id="paint17_linear" x1="9939.34" y1="4954.21" x2="11883.3" y2="4954.21" gradientUnits="userSpaceOnUse">
<stop offset="0.01" stop-color="#BBC6D1"/>
<stop offset="0.12" stop-color="#B0C6D2"/>
<stop offset="0.31" stop-color="#92C6D5"/>
<stop offset="0.56" stop-color="#62C6DA"/>
<stop offset="0.86" stop-color="#21C7E0"/>
<stop offset="0.99" stop-color="#01C7E3"/>
</linearGradient>
<linearGradient id="paint18_linear" x1="10574.8" y1="6392.85" x2="14660.5" y2="6392.85" gradientUnits="userSpaceOnUse">
<stop offset="0.01" stop-color="#BBC6D1"/>
<stop offset="0.12" stop-color="#B0C6D2"/>
<stop offset="0.31" stop-color="#92C6D5"/>
<stop offset="0.56" stop-color="#62C6DA"/>
<stop offset="0.86" stop-color="#21C7E0"/>
<stop offset="0.99" stop-color="#01C7E3"/>
</linearGradient>
<linearGradient id="paint19_linear" x1="10188.6" y1="4777.96" x2="12132.2" y2="4777.96" gradientUnits="userSpaceOnUse">
<stop offset="0.01" stop-color="#BBC6D1"/>
<stop offset="0.12" stop-color="#B0C6D2"/>
<stop offset="0.31" stop-color="#92C6D5"/>
<stop offset="0.56" stop-color="#62C6DA"/>
<stop offset="0.86" stop-color="#21C7E0"/>
<stop offset="0.99" stop-color="#01C7E3"/>
</linearGradient>
<linearGradient id="paint20_linear" x1="9332.15" y1="9677.56" x2="11335.8" y2="9677.56" gradientUnits="userSpaceOnUse">
<stop stop-color="#00CBF2"/>
<stop offset="0.2" stop-color="#00AFD9"/>
<stop offset="0.62" stop-color="#016999"/>
<stop offset="1" stop-color="#01275D"/>
</linearGradient>
<linearGradient id="paint21_linear" x1="8026.64" y1="9199.37" x2="9312.19" y2="9199.37" gradientUnits="userSpaceOnUse">
<stop stop-color="#00CBF2"/>
<stop offset="0.2" stop-color="#00AFD9"/>
<stop offset="0.62" stop-color="#016999"/>
<stop offset="1" stop-color="#01275D"/>
</linearGradient>
<linearGradient id="paint22_linear" x1="106.702" y1="55.5183" x2="137.906" y2="75.7736" gradientUnits="userSpaceOnUse">
<stop offset="0.01" stop-color="#BBC6D1"/>
<stop offset="0.12" stop-color="#B5C6D2"/>
<stop offset="0.27" stop-color="#A4C6D3"/>
<stop offset="0.44" stop-color="#89C6D6"/>
<stop offset="0.63" stop-color="#63C6DA"/>
<stop offset="0.82" stop-color="#32C7DE"/>
<stop offset="0.99" stop-color="#01C7E3"/>
</linearGradient>
</defs>
</svg>
