<svg width="16" height="16" viewBox="0 0 16 16" fill="none" xmlns="http://www.w3.org/2000/svg">
<path d="M14 8.13908C14 8.78992 13.702 9.43158 13.1378 9.85272L5.45025 15.572C4.49765 16.2809 3.14587 16.0894 2.43137 15.1442C1.71694 14.1989 1.90986 12.8575 2.86246 12.1499L10.55 6.42805C11.5027 5.71912 12.8531 5.91055 13.5676 6.8558C13.859 7.24134 14 7.69151 14 8.13908Z" fill="#032D6F"/>
<path d="M14 7.86194C14 8.30828 13.8603 8.75852 13.5689 9.14404C12.8545 10.0895 11.504 10.2809 10.5514 9.57186L2.86246 3.85059C1.90986 3.14154 1.71694 1.80002 2.43137 0.855935C3.14587 -0.0894667 4.49631 -0.280923 5.44896 0.428127L13.1365 6.14807C13.702 6.56932 14 7.21101 14 7.86194Z" fill="#01C7E3"/>
</svg>
