<svg width="94" height="94" viewBox="0 0 94 94" fill="none" xmlns="http://www.w3.org/2000/svg">
<path d="M49.5149 71.3523C51.3697 58.366 42.3469 46.3349 29.3614 44.48C16.376 42.625 4.34559 51.6485 2.49071 64.6347C0.635834 77.6209 9.65891 89.652 22.6443 91.507C35.6297 93.3622 47.6601 84.3385 49.5149 71.3523Z" fill="#9EE6F1"/>
<path d="M26.082 58.086C27.942 58.086 29.5655 59.0772 30.1209 60.5499C30.4143 61.3304 31.172 61.8545 32.0037 61.8545C32.2458 61.8545 32.485 61.8118 32.7157 61.7235C33.2199 61.5355 33.6187 61.1595 33.8408 60.6695C34.063 60.1796 34.0801 59.6327 33.8892 59.1285C33.0461 56.8896 31.1121 55.1065 28.7139 54.363C28.3037 54.2348 28.0217 53.8531 28.0217 53.423V52.9957C28.0217 51.8848 27.1188 50.979 26.008 50.979C24.8971 50.979 23.9942 51.8848 23.9942 52.9957V53.5626C23.9942 53.9785 23.7322 54.3516 23.3391 54.4912C22.2511 54.8786 21.3054 55.4312 20.5278 56.1348C18.8958 57.616 17.9985 59.6099 17.9985 61.752C17.9985 63.7117 18.9442 67.3749 25.2731 69.8644C27.0362 70.5595 29.9956 72.0464 29.9956 74.2283C29.9956 75.4987 29.3433 76.359 28.7965 76.8603C28.0616 77.5297 27.0505 77.8971 25.9453 77.8971C24.0854 77.8971 22.459 76.9059 21.9007 75.4304C21.6045 74.6499 20.8468 74.1258 20.0151 74.1258C19.773 74.1258 19.5338 74.1713 19.3031 74.2568C18.2634 74.6499 17.7365 75.8149 18.1296 76.8546C18.9755 79.0907 20.9095 80.871 23.3049 81.6144C23.7151 81.7426 23.9971 82.1243 23.9971 82.5544V82.9845C23.9971 84.0954 24.9 84.9984 26.0108 84.9984C27.1217 84.9984 28.0246 84.0954 28.0246 82.9845V82.4177C28.0246 81.999 28.2866 81.6286 28.6825 81.4891C29.7706 81.1045 30.7191 80.5491 31.4967 79.8455C33.1259 78.3671 34.0231 76.3704 34.0231 74.2283C34.0231 72.2657 33.0775 68.6026 26.7485 66.1158C24.9854 65.4208 22.0289 63.931 22.0289 61.752C22.0289 60.7578 22.4561 59.8235 23.2337 59.1171C23.9657 58.4534 24.9769 58.086 26.082 58.086Z" fill="#032D6F"/>
<path d="M91.9806 0H52.9959C52.1755 0 51.4464 0.48709 51.1331 1.24479C50.8197 1.99963 50.9906 2.85987 51.5689 3.44096L62.9421 14.8149C63.1273 15.0001 63.2298 15.2508 63.2298 15.51C63.2298 15.772 63.1244 16.0199 62.9421 16.205L42.571 36.5773C41.7849 37.3635 41.7849 38.6425 42.571 39.4258C42.9527 39.8047 43.4569 40.0154 43.9952 40.0154C44.5335 40.0154 45.0377 39.8047 45.4194 39.4258L67.9096 16.9342C68.6957 16.148 68.6957 14.8691 67.9096 14.0857L59.5356 5.7112C59.2536 5.4292 59.171 5.00478 59.3219 4.63733C59.4729 4.26987 59.8318 4.0306 60.2306 4.0306H88.9814C89.5254 4.0306 89.9669 4.47211 89.9669 5.01617V33.763C89.9669 34.1618 89.7276 34.5207 89.3602 34.6717C89.2377 34.723 89.1096 34.7458 88.9842 34.7458C88.7279 34.7458 88.4772 34.6461 88.2892 34.4581L79.9152 26.0807C79.5335 25.699 79.0294 25.4911 78.4911 25.4911C77.9527 25.4911 77.4457 25.7018 77.0669 26.0807L54.5767 48.5723C53.7905 49.3585 53.7905 50.6346 54.5767 51.4208C54.9583 51.8025 55.4625 52.0104 56.0008 52.0104C56.5391 52.0104 57.0433 51.7996 57.425 51.4208L77.7961 31.0484C77.9898 30.8576 78.2404 30.7607 78.4911 30.7607C78.7417 30.7607 78.9952 30.8576 79.1861 31.0484L90.5593 42.4224C90.941 42.8041 91.448 43.0149 91.9864 43.0149C92.2512 43.0149 92.5076 42.9636 92.7582 42.8582C93.513 42.5449 94.0001 41.8157 94.0001 40.9982V2.01388C93.9944 0.902968 93.0915 0 91.9806 0Z" fill="#032D6F"/>
<path d="M91.9805 56.981H58.9914C58.1739 56.981 57.4419 57.4681 57.1314 58.2257C56.8181 58.9806 56.989 59.8408 57.5672 60.4191L67.4423 70.2948C67.8268 70.6793 67.8268 71.3031 67.4423 71.6877L48.5723 90.5589C47.7861 91.345 47.7861 92.624 48.5723 93.4073C48.9539 93.789 49.4581 93.997 49.9964 93.997C50.5348 93.997 51.0389 93.7862 51.4206 93.4073L72.4126 72.414C73.1987 71.6278 73.1987 70.3517 72.4126 69.5655L65.5368 62.6893C65.2548 62.4073 65.1722 61.9829 65.3232 61.6154C65.4741 61.248 65.833 61.0087 66.2318 61.0087H88.9812C89.5252 61.0087 89.9667 61.4502 89.9667 61.9914V84.7423C89.9667 85.141 89.7275 85.4999 89.3601 85.6509C89.2376 85.7022 89.1094 85.725 88.9841 85.725C88.7277 85.725 88.4771 85.6253 88.2891 85.4373L81.4133 78.561C81.0316 78.1793 80.5274 77.9714 79.9891 77.9714C79.4508 77.9714 78.9438 78.1822 78.565 78.561L66.5707 90.556C65.7846 91.3422 65.7846 92.6212 66.5707 93.4045C66.9524 93.7862 67.4566 93.9941 67.9949 93.9941C68.5332 93.9941 69.0402 93.7833 69.419 93.4045L79.2941 83.5288C79.485 83.3379 79.7385 83.2411 79.9891 83.2411C80.2398 83.2411 80.4933 83.3379 80.6841 83.5288L90.5592 93.4045C90.9409 93.7862 91.445 93.9941 91.9833 93.9941C92.2511 93.9941 92.5103 93.9428 92.7552 93.8403C93.51 93.527 93.9971 92.7978 93.9971 91.9802V58.9948C93.9943 57.8839 93.0913 56.981 91.9805 56.981Z" fill="#032D6F"/>
<path d="M32.3805 28.6728C32.2581 28.7241 32.1299 28.7469 32.0046 28.7469C31.7482 28.7469 31.4976 28.6472 31.3096 28.4592L24.4337 21.5829C24.0521 21.2012 23.5479 20.9933 23.0096 20.9933C22.4713 20.9933 21.9643 21.2041 21.5854 21.5829L0.593399 42.5762C-0.192734 43.3624 -0.192734 44.6385 0.593399 45.4247C0.975073 45.8064 1.47922 46.0144 2.01756 46.0144C2.55589 46.0144 3.06004 45.8036 3.44171 45.4247L22.3118 26.5535C22.4969 26.3684 22.7475 26.2658 23.0067 26.2658C23.2688 26.2658 23.5166 26.3712 23.7017 26.5535L33.5768 36.4292C33.9613 36.8138 34.4655 37.0245 35.001 37.0245C35.2659 37.0245 35.5222 36.9733 35.7729 36.8679C36.5277 36.5545 37.0147 35.8253 37.0147 35.0078V2.01388C37.0147 0.902968 36.1118 0 35.001 0H2.01756C1.19724 0 0.468074 0.48709 0.15476 1.24479C-0.158554 1.99963 0.0123442 2.85987 0.590551 3.44096L10.4656 13.3166C10.8502 13.7012 10.8502 14.325 10.4656 14.7096L0.593399 24.5824C-0.192734 25.3686 -0.192734 26.6475 0.593399 27.4309C0.975073 27.8126 1.47922 28.0205 2.01756 28.0205C2.55589 28.0205 3.06004 27.8097 3.44171 27.4309L15.4359 15.4359C16.2221 14.6497 16.2221 13.3736 15.4359 12.5874L8.56012 5.7112C8.27814 5.4292 8.19554 5.00478 8.3465 4.63733C8.49746 4.26987 8.85635 4.0306 9.25511 4.0306H32.0046C32.5486 4.0306 32.9901 4.47211 32.9901 5.01617V27.7641C32.9901 28.1601 32.748 28.519 32.3805 28.6728Z" fill="#032D6F"/>
<path d="M26.0051 41.9868C11.6667 41.9868 0 53.6542 0 67.9934C0 82.3327 11.6667 94.0001 26.0051 94.0001C40.3434 94.0001 52.0101 82.3327 52.0101 67.9934C52.0101 53.6542 40.3434 41.9868 26.0051 41.9868ZM26.0051 89.9695C13.8884 89.9695 4.03036 80.1109 4.03036 67.9906C4.03036 55.8732 13.8884 46.0146 26.0051 46.0146C38.1218 46.0146 47.9798 55.8732 47.9798 67.9906C47.9826 80.1109 38.1246 89.9695 26.0051 89.9695Z" fill="#032D6F"/>
</svg>
