<svg width="235" height="38" viewBox="0 0 235 38" fill="none" xmlns="http://www.w3.org/2000/svg">
<path d="M49.5 7.5C51.9167 7.5 53.9333 8.34167 55.55 10.025C57.1833 11.6917 58 13.7667 58 16.25C58 18.7333 57.1833 20.8167 55.55 22.5C53.9333 24.1667 51.9167 25 49.5 25H42.375V7.5H49.5ZM49.5 20.675C50.7167 20.675 51.7083 20.275 52.475 19.475C53.2417 18.6583 53.625 17.5833 53.625 16.25C53.625 14.9167 53.2417 13.85 52.475 13.05C51.7083 12.2333 50.7167 11.825 49.5 11.825H46.975V20.675H49.5ZM131.852 25.375C130.002 25.375 128.469 24.9833 127.252 24.2C126.035 23.4167 125.185 22.3583 124.702 21.025L128.527 18.8C129.177 20.35 130.327 21.125 131.977 21.125C133.344 21.125 134.027 20.7333 134.027 19.95C134.027 19.4333 133.635 19.0167 132.852 18.7C132.519 18.5667 131.785 18.3417 130.652 18.025C129.052 17.5583 127.785 16.9083 126.852 16.075C125.919 15.225 125.452 14.05 125.452 12.55C125.452 10.9333 126.027 9.625 127.177 8.625C128.344 7.625 129.794 7.125 131.527 7.125C132.994 7.125 134.294 7.46667 135.427 8.15C136.56 8.83333 137.427 9.825 138.027 11.125L134.277 13.325C133.727 12.025 132.819 11.375 131.552 11.375C131.019 11.375 130.61 11.4833 130.327 11.7C130.06 11.9167 129.927 12.1917 129.927 12.525C129.927 12.9083 130.127 13.2333 130.527 13.5C130.944 13.7667 131.744 14.075 132.927 14.425C133.777 14.675 134.46 14.9083 134.977 15.125C135.494 15.3417 136.06 15.6583 136.677 16.075C137.294 16.475 137.752 17 138.052 17.65C138.352 18.2833 138.502 19.0333 138.502 19.9C138.502 21.6167 137.894 22.9583 136.677 23.925C135.46 24.8917 133.852 25.375 131.852 25.375Z" fill="#01C7E3"/>
<path d="M63.6502 10.775C63.1835 11.2417 62.6252 11.475 61.9752 11.475C61.3252 11.475 60.7585 11.2417 60.2752 10.775C59.8085 10.2917 59.5752 9.72495 59.5752 9.07495C59.5752 8.42495 59.8085 7.86662 60.2752 7.39995C60.7585 6.93328 61.3252 6.69995 61.9752 6.69995C62.6252 6.69995 63.1835 6.93328 63.6502 7.39995C64.1335 7.86662 64.3752 8.42495 64.3752 9.07495C64.3752 9.72495 64.1335 10.2917 63.6502 10.775ZM59.9002 25V12.5H64.0502V25H59.9002ZM75.3688 12.5H79.4688V24.5C79.4688 25.5 79.2771 26.3833 78.8938 27.15C78.5271 27.9333 78.0271 28.5499 77.3938 29C76.7604 29.4667 76.0604 29.8083 75.2938 30.025C74.5438 30.2583 73.7438 30.375 72.8938 30.375C71.5104 30.375 70.2771 30.1167 69.1938 29.6C68.1104 29.0833 67.2938 28.325 66.7438 27.325L70.1938 25.325C70.7938 26.275 71.6771 26.75 72.8438 26.75C73.5938 26.75 74.2021 26.5583 74.6688 26.1749C75.1354 25.7916 75.3688 25.2332 75.3688 24.5V23.2999C74.5188 24.3333 73.3521 24.85 71.8688 24.85C70.1521 24.85 68.7271 24.2332 67.5938 23C66.4771 21.7667 65.9188 20.2667 65.9188 18.5C65.9188 16.7333 66.4771 15.2333 67.5938 14C68.7271 12.7667 70.1521 12.15 71.8688 12.15C73.3521 12.15 74.5188 12.6667 75.3688 13.7V12.5ZM70.7938 20.375C71.2938 20.8583 71.9354 21.1 72.7188 21.1C73.5021 21.1 74.1354 20.8583 74.6188 20.375C75.1188 19.875 75.3688 19.25 75.3688 18.5C75.3688 17.75 75.1188 17.1333 74.6188 16.65C74.1354 16.15 73.5021 15.9 72.7188 15.9C71.9354 15.9 71.2938 16.15 70.7938 16.65C70.3104 17.1333 70.0688 17.75 70.0688 18.5C70.0688 19.25 70.3104 19.875 70.7938 20.375ZM85.6229 10.775C85.1562 11.2417 84.5979 11.475 83.9479 11.475C83.2979 11.475 82.7312 11.2417 82.2479 10.775C81.7812 10.2917 81.5479 9.72495 81.5479 9.07495C81.5479 8.42495 81.7812 7.86662 82.2479 7.39995C82.7312 6.93328 83.2979 6.69995 83.9479 6.69995C84.5979 6.69995 85.1562 6.93328 85.6229 7.39995C86.1062 7.86662 86.3479 8.42495 86.3479 9.07495C86.3479 9.72495 86.1062 10.2917 85.6229 10.775ZM81.8729 25V12.5H86.0229V25H81.8729ZM96.1658 16.475H93.5658V20.1C93.5658 20.65 93.7658 20.9917 94.1658 21.125C94.5658 21.2583 95.2325 21.3 96.1658 21.25V25C93.6825 25.2999 91.9325 25.075 90.9158 24.325C89.9158 23.5583 89.4158 22.1833 89.4158 20.2V16.475H87.5408V12.5H89.4158V10.25L93.5658 8.99995V12.5H96.1658V16.475ZM106.689 12.5H110.839V25H106.689V23.85C105.839 24.85 104.656 25.35 103.139 25.35C101.472 25.35 100.072 24.725 98.9391 23.475C97.8224 22.2083 97.2641 20.6333 97.2641 18.75C97.2641 16.8667 97.8224 15.3 98.9391 14.05C100.072 12.7833 101.472 12.15 103.139 12.15C104.656 12.15 105.839 12.65 106.689 13.65V12.5ZM102.164 20.725C102.647 21.225 103.281 21.475 104.064 21.475C104.847 21.475 105.481 21.225 105.964 20.725C106.447 20.225 106.689 19.5667 106.689 18.75C106.689 17.9333 106.447 17.275 105.964 16.775C105.481 16.275 104.847 16.025 104.064 16.025C103.281 16.025 102.647 16.275 102.164 16.775C101.681 17.275 101.439 17.9333 101.439 18.75C101.439 19.5667 101.681 20.225 102.164 20.725ZM113.245 25V6.74995H117.395V25H113.245ZM146.151 25.35C144.301 25.35 142.726 24.7167 141.426 23.45C140.126 22.1667 139.476 20.6 139.476 18.75C139.476 16.9 140.126 15.3417 141.426 14.075C142.726 12.7917 144.301 12.15 146.151 12.15C148.018 12.15 149.593 12.7917 150.876 14.075C152.176 15.3417 152.826 16.9 152.826 18.75C152.826 20.6 152.176 22.1667 150.876 23.45C149.593 24.7167 148.018 25.35 146.151 25.35ZM146.151 21.35C146.884 21.35 147.484 21.1083 147.951 20.625C148.434 20.1417 148.676 19.5167 148.676 18.75C148.676 17.9833 148.434 17.3583 147.951 16.875C147.484 16.3917 146.884 16.15 146.151 16.15C145.434 16.15 144.834 16.3917 144.351 16.875C143.884 17.3583 143.651 17.9833 143.651 18.75C143.651 19.5167 143.884 20.1417 144.351 20.625C144.834 21.1083 145.434 21.35 146.151 21.35ZM154.651 25V6.74995H158.801V25H154.651ZM169.119 12.5H173.269V25H169.119V23.75C168.369 24.8167 167.211 25.35 165.644 25.35C164.294 25.35 163.186 24.8917 162.319 23.975C161.469 23.0417 161.044 21.7083 161.044 19.975V12.5H165.194V19.45C165.194 20.1 165.361 20.5917 165.694 20.925C166.044 21.2583 166.502 21.425 167.069 21.425C167.719 21.425 168.219 21.2333 168.569 20.85C168.936 20.45 169.119 19.8833 169.119 19.15V12.5ZM183.422 16.475H180.822V20.1C180.822 20.65 181.022 20.9917 181.422 21.125C181.822 21.2583 182.488 21.3 183.422 21.25V25C180.938 25.2999 179.188 25.075 178.172 24.325C177.172 23.5583 176.672 22.1833 176.672 20.2V16.475H174.797V12.5H176.672V10.25L180.822 8.99995V12.5H183.422V16.475ZM189.09 10.775C188.623 11.2417 188.065 11.475 187.415 11.475C186.765 11.475 186.198 11.2417 185.715 10.775C185.248 10.2917 185.015 9.72495 185.015 9.07495C185.015 8.42495 185.248 7.86662 185.715 7.39995C186.198 6.93328 186.765 6.69995 187.415 6.69995C188.065 6.69995 188.623 6.93328 189.09 7.39995C189.573 7.86662 189.815 8.42495 189.815 9.07495C189.815 9.72495 189.573 10.2917 189.09 10.775ZM185.34 25V12.5H189.49V25H185.34ZM197.933 25.35C196.083 25.35 194.508 24.7167 193.208 23.45C191.908 22.1667 191.258 20.6 191.258 18.75C191.258 16.9 191.908 15.3417 193.208 14.075C194.508 12.7917 196.083 12.15 197.933 12.15C199.8 12.15 201.375 12.7917 202.658 14.075C203.958 15.3417 204.608 16.9 204.608 18.75C204.608 20.6 203.958 22.1667 202.658 23.45C201.375 24.7167 199.8 25.35 197.933 25.35ZM197.933 21.35C198.667 21.35 199.267 21.1083 199.733 20.625C200.217 20.1417 200.458 19.5167 200.458 18.75C200.458 17.9833 200.217 17.3583 199.733 16.875C199.267 16.3917 198.667 16.15 197.933 16.15C197.217 16.15 196.617 16.3917 196.133 16.875C195.667 17.3583 195.433 17.9833 195.433 18.75C195.433 19.5167 195.667 20.1417 196.133 20.625C196.617 21.1083 197.217 21.35 197.933 21.35ZM214.058 12.15C215.408 12.15 216.508 12.6167 217.358 13.55C218.225 14.4667 218.658 15.7917 218.658 17.525V25H214.508V18.05C214.508 17.4 214.333 16.9083 213.983 16.575C213.65 16.2417 213.2 16.075 212.633 16.075C211.983 16.075 211.475 16.275 211.108 16.675C210.758 17.0583 210.583 17.6167 210.583 18.35V25H206.433V12.5H210.583V13.75C211.333 12.6833 212.492 12.15 214.058 12.15ZM224.886 16.15C224.886 16.3833 225.094 16.575 225.511 16.725C225.944 16.875 226.461 17.0167 227.061 17.15C227.678 17.2833 228.286 17.475 228.886 17.725C229.503 17.9583 230.019 18.3667 230.436 18.95C230.869 19.5333 231.086 20.2667 231.086 21.15C231.086 22.5833 230.553 23.6417 229.486 24.325C228.419 25.0083 227.153 25.35 225.686 25.35C222.886 25.35 221.019 24.3583 220.086 22.375L223.711 20.55C224.028 21.4667 224.678 21.925 225.661 21.925C226.411 21.925 226.786 21.7 226.786 21.25C226.786 21.0167 226.578 20.825 226.161 20.675C225.744 20.525 225.236 20.375 224.636 20.225C224.036 20.075 223.436 19.875 222.836 19.625C222.236 19.375 221.728 18.975 221.311 18.425C220.894 17.8583 220.686 17.1667 220.686 16.35C220.686 15.0167 221.178 13.9833 222.161 13.25C223.144 12.5167 224.328 12.15 225.711 12.15C228.178 12.15 229.894 13.1167 230.861 15.05L227.361 16.625C226.994 15.9083 226.478 15.55 225.811 15.55C225.194 15.55 224.886 15.75 224.886 16.15Z" fill="#032D6F"/>
<path d="M31.5018 17.4653C31.5018 18.5859 30.9926 19.6907 30.0288 20.4158L16.8947 30.263C15.2672 31.4836 12.9577 31.154 11.737 29.5265C10.5164 27.8989 10.846 25.5894 12.4735 24.371L25.6076 14.5193C27.2352 13.2987 29.5424 13.6283 30.763 15.2558C31.2609 15.9196 31.5018 16.6947 31.5018 17.4653Z" fill="#032D6F"/>
<path d="M31.5018 17.4698C31.5018 18.2382 31.2631 19.0133 30.7653 19.677C29.5447 21.3046 27.2374 21.6342 25.6099 20.4135L12.4735 10.5641C10.846 9.34348 10.5164 7.03399 11.737 5.40871C12.9577 3.78116 15.2649 3.45156 16.8925 4.67222L30.0266 14.5193C30.9926 15.2445 31.5018 16.3492 31.5018 17.4698Z" fill="#01C7E3"/>
</svg>
