<svg width="95" height="94" viewBox="0 0 95 94" fill="none" xmlns="http://www.w3.org/2000/svg">
<path d="M3.91676 91.9835H72.4798C73.3172 91.9835 73.9952 91.3056 73.9952 90.4682V20.9929L56.5226 2.81445H3.91676C3.0793 2.81445 2.40137 3.49237 2.40137 4.3298V90.471C2.40137 91.3056 3.0793 91.9835 3.91676 91.9835Z" fill="#9EE6F1"/>
<path d="M28.274 29.3384H13.7952V79.1854H28.274V29.3384Z" fill="white"/>
<path d="M55.9983 44.0562H41.4482V79.9887H55.9983V44.0562Z" fill="white"/>
<path d="M85.5772 70.9906C85.5772 79.1883 78.9317 85.8307 70.7366 85.8307C62.5386 85.8307 55.896 79.1854 55.896 70.9906C55.896 62.7929 62.5415 56.1504 70.7366 56.1504C78.9317 56.1504 85.5772 62.7957 85.5772 70.9906Z" fill="white"/>
<path d="M53.9846 2.81389V22.3369C53.9846 22.3369 73.2603 23.049 73.2603 22.3369C73.2603 21.6248 73.2603 18.7764 73.2603 18.7764L57.2062 2.72559L53.9846 2.81389Z" fill="white"/>
<path d="M5.01333 94C2.2503 94 0 91.7498 0 88.9868V5.01318C0 2.25023 2.2503 0 5.01333 0H55.9984C56.5367 0 57.0437 0.210781 57.4226 0.589618L75.4165 18.583C75.7982 18.9646 76.0061 19.4688 76.0061 20.0071V46.9986C76.0061 48.1094 75.1031 49.0124 73.9922 49.0124C72.8813 49.0124 71.9784 48.1094 71.9784 46.9986V26.0059C71.9784 25.4618 71.5368 25.0203 70.9928 25.0203H55.497C53.0074 25.0203 50.985 22.9951 50.985 20.5085V5.01318C50.985 4.46914 50.5435 4.02764 49.9994 4.02764H5.01333C4.46927 4.02764 4.02776 4.46914 4.02776 5.01318V88.984C4.02776 89.528 4.46927 89.9695 5.01333 89.9695H58.9978C60.1087 89.9695 61.0117 90.8725 61.0117 91.9833C61.0117 93.0942 60.1087 93.9971 58.9978 93.9971H5.01333V94ZM55.9984 5.27239C55.8702 5.27239 55.7448 5.29802 55.6224 5.34644C55.2549 5.49741 55.0156 5.85916 55.0156 6.25508V20.0071C55.0156 20.5512 55.4571 20.9927 56.0012 20.9927H69.7537C70.1525 20.9927 70.5114 20.7534 70.6624 20.386C70.8133 20.0185 70.7307 19.5941 70.4487 19.3121L56.6962 5.56007C56.5054 5.37208 56.2547 5.27239 55.9984 5.27239Z" fill="#032D6F"/>
<path d="M91.9862 94.0001C91.4479 94.0001 90.9437 93.7893 90.562 93.4105L82.0991 84.9479C81.9083 84.757 81.6576 84.6602 81.4041 84.6602C81.2047 84.6602 81.0053 84.72 80.8344 84.8425C77.9318 86.9104 74.5279 88.0042 70.9957 88.0042C61.6157 88.0042 53.9846 80.3733 53.9846 70.9936C53.9846 61.6138 61.6157 53.9829 70.9957 53.9829C80.3758 53.9829 88.0069 61.6138 88.0069 70.9936C88.0069 74.5284 86.9131 77.9294 84.8451 80.8319C84.5659 81.2222 84.6115 81.7605 84.9505 82.0995L93.4133 90.5621C94.1995 91.3482 94.1995 92.6243 93.4133 93.4105C93.0316 93.7893 92.5246 94.0001 91.9862 94.0001ZM70.9929 58.0105C63.8347 58.0105 58.0124 63.8327 58.0124 70.9907C58.0124 78.1487 63.8347 83.9709 70.9929 83.9709C78.1511 83.9709 83.9734 78.1487 83.9734 70.9907C83.9734 63.8327 78.1511 58.0105 70.9929 58.0105Z" fill="#032D6F"/>
<path d="M14.0117 82.0028C12.9008 82.0028 11.9978 81.0998 11.9978 79.9889V29.0055C11.9978 27.8946 12.9008 26.9917 14.0117 26.9917H29.0061C30.117 26.9917 31.02 27.8946 31.02 29.0055V79.9889C31.02 81.0998 30.117 82.0028 29.0061 82.0028H14.0117ZM17.0111 31.0193C16.4671 31.0193 16.0256 31.4608 16.0256 32.0048V76.9896C16.0256 77.5336 16.4671 77.9751 17.0111 77.9751H26.0067C26.5507 77.9751 26.9922 77.5336 26.9922 76.9896V32.0048C26.9922 31.4608 26.5507 31.0193 26.0067 31.0193H17.0111Z" fill="#032D6F"/>
<path d="M41.0039 82.0025C39.893 82.0025 38.99 81.0996 38.99 79.9887V43.9991C38.99 42.8882 39.893 41.9854 41.0039 41.9854H55.9983C57.1092 41.9854 58.0122 42.8882 58.0122 43.9991V52.9916C58.0122 54.1024 57.1092 55.0054 55.9983 55.0054C54.8874 55.0054 53.9844 54.1024 53.9844 52.9916V46.9985C53.9844 46.4545 53.5429 46.013 52.9989 46.013H44.0005C43.4564 46.013 43.0149 46.4545 43.0149 46.9985V76.9893C43.0149 77.5334 43.4564 77.9748 44.0005 77.9748H49.9852C51.0961 77.9748 51.999 78.8778 51.999 79.9887C51.999 81.0996 51.0961 82.0025 49.9852 82.0025H41.0039Z" fill="#032D6F"/>
</svg>
