<svg width="282" height="206" viewBox="0 0 282 206" fill="none" xmlns="http://www.w3.org/2000/svg">
<path d="M280.295 126.927L123.807 37.1371C123.275 36.8288 122.669 36.6702 122.054 36.678C121.439 36.6858 120.838 36.8597 120.314 37.1814L0 110.62L160.457 205.995L280.361 132.805C280.867 132.497 281.284 132.061 281.571 131.543C281.858 131.024 282.006 130.44 281.999 129.847C281.993 129.255 281.832 128.674 281.533 128.162C281.234 127.65 280.808 127.224 280.295 126.927Z" fill="url(#paint0_linear)"/>
<path d="M275.501 131.687L222.043 162.232C221.644 162.459 221.229 162.669 220.802 162.868C220.658 162.94 220.509 162.996 220.365 163.062C220.072 163.189 219.784 163.317 219.485 163.427L218.931 163.627C218.654 163.721 218.378 163.82 218.095 163.903C217.813 163.986 217.691 164.02 217.492 164.081C217.292 164.141 216.938 164.236 216.65 164.302L216.047 164.44C215.753 164.501 215.493 164.562 215.172 164.612L214.546 164.723C214.225 164.772 213.899 164.817 213.572 164.856L213.146 164.905C212.659 164.961 212.177 164.999 211.695 165.027H211.64C211.175 165.055 210.71 165.066 210.239 165.071H209.819C209.459 165.071 209.093 165.071 208.711 165.038C208.573 165.038 208.434 165.038 208.302 165.038C207.82 165.011 207.338 164.972 206.862 164.916C206.774 164.916 206.691 164.916 206.602 164.883C206.192 164.833 205.788 164.778 205.384 164.712L204.886 164.618C204.548 164.557 204.205 164.49 203.873 164.413L203.568 164.346C203.125 164.236 202.682 164.119 202.25 163.992L202.118 163.948C201.723 163.826 201.335 163.693 200.955 163.549L200.689 163.45C200.379 163.333 200.086 163.2 199.787 163.068L199.366 162.879C198.951 162.68 198.547 162.475 198.159 162.248L62.1003 83.3246C61.9176 83.2194 61.7404 83.1087 61.5466 82.998L61.3861 82.8929C61.2698 82.8209 61.1536 82.7379 61.0428 82.6604L60.8712 82.5386L60.5556 82.3061L60.4062 82.1898L60.3397 82.1345L60.229 82.0404C60.0961 81.9297 59.9688 81.8245 59.8415 81.7083L59.6754 81.5533C59.548 81.437 59.4262 81.3153 59.31 81.1935L59.1992 81.0772C59.0498 80.9167 58.9114 80.7562 58.7785 80.5956L58.6955 80.485C58.5958 80.3576 58.4961 80.2248 58.4076 80.0919C58.3891 80.0693 58.3724 80.0452 58.3577 80.02C58.3245 79.9757 58.2969 79.9259 58.2636 79.8761L58.164 79.7155C58.1086 79.627 58.0588 79.5384 58.0145 79.4554L57.9315 79.3059C57.8761 79.1952 57.8207 79.0845 57.7764 78.9738C57.7595 78.9473 57.7447 78.9195 57.7321 78.8908C57.6768 78.7579 57.6214 78.6251 57.5771 78.4922C57.5079 78.2923 57.4488 78.0891 57.4 77.8833L57.3668 77.7394C57.3209 77.5328 57.2858 77.3241 57.2616 77.1139C57.2616 76.9644 57.2616 76.815 57.2339 76.6655L57.4387 80.7008C57.4397 80.8507 57.4489 81.0004 57.4664 81.1492C57.4893 81.3574 57.5225 81.5643 57.5661 81.7692L57.5993 81.9131C57.6473 82.1191 57.7065 82.3223 57.7764 82.522C57.8263 82.6548 57.8761 82.7877 57.937 82.9205C57.9465 82.9514 57.9595 82.9811 57.9757 83.0091C58.0256 83.1143 58.0754 83.225 58.1363 83.3357C58.1588 83.3854 58.1847 83.4335 58.2138 83.4796L58.3633 83.7453L58.4629 83.9058L58.5571 84.0442L58.6069 84.1217C58.701 84.2545 58.7951 84.3874 58.8948 84.5147L58.9778 84.6254C59.1107 84.7859 59.2491 84.952 59.3986 85.107L59.5148 85.2288L59.8747 85.5886L60.0408 85.738L60.4283 86.0757L60.539 86.1643L60.6055 86.2196L60.7605 86.3359L61.0705 86.5739L61.2421 86.6901C61.3584 86.7676 61.4691 86.8507 61.5909 86.9226L61.7459 87.0278C61.9231 87.1385 62.0947 87.2492 62.2996 87.3544L198.392 166.262C198.785 166.488 199.189 166.699 199.604 166.898C199.743 166.965 199.886 167.02 200.025 167.081C200.257 167.186 200.484 167.297 200.728 167.391L200.922 167.463L201.187 167.562C201.557 167.706 201.944 167.839 202.35 167.961L202.489 168.005C202.92 168.132 203.358 168.249 203.801 168.359L204.111 168.426C204.227 168.459 204.338 168.487 204.454 168.509C204.675 168.559 204.897 168.592 205.118 168.636L205.622 168.725C206.021 168.791 206.43 168.852 206.84 168.896L207.095 168.935H207.133C207.598 168.99 208.064 169.024 208.534 169.051H208.949L209.553 169.079H210.461C210.926 169.079 211.396 169.079 211.861 169.04H211.922C212.404 169.013 212.886 168.974 213.362 168.924L213.788 168.869C213.982 168.869 214.176 168.83 214.342 168.802L214.746 168.736L215.371 168.625C215.665 168.575 215.925 168.514 216.241 168.454L216.844 168.321C216.933 168.293 217.027 168.282 217.115 168.254C217.309 168.21 217.497 168.149 217.669 168.094L218.272 167.922C218.555 167.834 218.826 167.734 219.108 167.64L219.662 167.446C219.961 167.33 220.254 167.203 220.542 167.075L220.98 166.887C221.406 166.682 221.821 166.472 222.22 166.245L275.678 135.701C279.088 133.752 280.771 131.184 280.71 128.632L280.511 124.597C280.588 127.171 278.911 129.739 275.501 131.687Z" fill="#901B73"/>
<path d="M275.689 118.048L139.608 39.1463C133.064 35.349 122.379 35.349 115.741 39.1463L62.2829 69.6907C55.6394 73.4824 55.5674 79.6544 62.1002 83.4295L198.181 162.331C204.72 166.128 215.405 166.128 222.042 162.331L270.363 134.737L275.528 131.787C282.139 127.99 282.222 121.84 275.689 118.048Z" fill="white"/>
<path d="M274.421 119.543L138.34 40.6409C135.638 39.0689 131.984 38.1777 128.065 38.1279C123.929 38.0725 119.899 38.9914 116.992 40.6465L63.5452 71.1908C60.91 72.6909 59.4595 74.6228 59.4595 76.6321C59.4595 78.6415 60.8435 80.4626 63.3625 81.9295L199.444 160.831C202.145 162.398 205.799 163.289 209.719 163.344C213.854 163.394 217.885 162.475 220.791 160.826L274.238 130.281C276.868 128.776 278.319 126.844 278.319 124.84C278.319 122.836 276.94 121.009 274.421 119.543Z" fill="url(#paint1_linear)"/>
<path d="M117.784 48.3074L109.352 43.4197L69.6074 66.1148L78.4654 71.2129C80.1317 72.1664 82.0182 72.668 83.938 72.668C85.8578 72.668 87.7443 72.1664 89.4106 71.2129L117.645 55.0662C119.306 54.1141 120.225 52.8907 120.231 51.6231C120.236 50.3555 119.378 49.2374 117.784 48.3074Z" fill="white"/>
<path d="M108.151 52.7302L107.641 52.4313C107.288 52.2355 106.891 52.1328 106.487 52.1328C106.083 52.1328 105.686 52.2355 105.333 52.4313L84.6936 64.3158C84.6015 64.3618 84.524 64.4324 84.4698 64.52C84.4156 64.6075 84.387 64.7083 84.387 64.8113C84.387 64.9142 84.4156 65.0151 84.4698 65.1026C84.524 65.1901 84.6015 65.2608 84.6936 65.3067L85.2473 65.6111C85.5983 65.8045 85.9925 65.9059 86.3933 65.9059C86.794 65.9059 87.1882 65.8045 87.5393 65.6111L108.151 53.7155C108.241 53.6691 108.318 53.5985 108.371 53.5116C108.424 53.4247 108.452 53.3248 108.452 53.2229C108.452 53.121 108.424 53.0211 108.371 52.9342C108.318 52.8473 108.241 52.7767 108.151 52.7302Z" fill="#901B73"/>
<path d="M248.987 136.885L240.866 132.39C239.935 131.897 238.896 131.644 237.843 131.654C236.714 131.617 235.594 131.872 234.593 132.396L218.876 141.374C218.101 141.817 217.674 142.387 217.674 142.974C217.713 143.312 217.839 143.634 218.041 143.908C218.243 144.182 218.514 144.398 218.826 144.535L226.942 149.024C227.872 149.519 228.911 149.772 229.965 149.76C231.095 149.796 232.215 149.542 233.22 149.024L248.938 140.04C249.713 139.597 250.139 139.027 250.139 138.44C250.102 138.102 249.976 137.78 249.773 137.507C249.571 137.234 249.3 137.019 248.987 136.885Z" fill="white"/>
<path d="M71.5339 83.9941L191.139 152.86L259.429 113.299L139.824 44.4326L71.5339 83.9941Z" fill="url(#paint2_linear)"/>
<path d="M179.375 144.612L180.083 145.022L245.555 106.789L244.846 106.379L179.375 144.612Z" fill="url(#paint3_radial)"/>
<path d="M248.71 115.302C248.423 115.208 248.157 115.114 247.841 115.031C247.704 115.011 247.58 114.94 247.492 114.832C247.459 114.782 247.448 114.749 247.492 114.71C247.587 114.533 247.681 114.361 247.764 114.184C247.764 114.14 247.764 114.079 247.764 114.024L246.85 113.503C246.76 113.495 246.669 113.495 246.579 113.503C246.308 113.542 246.025 113.581 245.787 113.636C245.625 113.673 245.455 113.659 245.3 113.598C245.25 113.586 245.206 113.559 245.173 113.52C245.084 113.409 244.996 113.304 244.896 113.193C244.796 113.083 244.708 112.989 244.603 112.889C244.527 112.824 244.431 112.788 244.331 112.789L243.429 112.729C243.29 112.729 243.196 112.729 243.158 112.806C243.058 112.95 242.969 113.102 242.892 113.26C242.863 113.322 242.815 113.373 242.756 113.406C242.696 113.44 242.628 113.455 242.56 113.448C242.514 113.454 242.467 113.454 242.421 113.448L241.785 113.249L241.303 113.127C241.261 113.108 241.216 113.098 241.17 113.098C241.124 113.098 241.079 113.108 241.037 113.127C240.866 113.232 240.694 113.337 240.484 113.437C240.273 113.537 240.356 113.57 240.434 113.664C240.511 113.758 240.705 114.002 240.86 114.162C241.015 114.323 240.993 114.35 240.921 114.439C240.889 114.477 240.843 114.501 240.794 114.505L239.869 114.671C239.742 114.699 239.697 114.754 239.72 114.843C239.763 115.001 239.797 115.162 239.819 115.325C239.819 115.424 239.924 115.496 240.085 115.546C240.373 115.635 240.639 115.729 240.949 115.812C241.094 115.833 241.226 115.908 241.32 116.022C241.347 116.066 241.358 116.094 241.32 116.133C241.22 116.31 241.126 116.487 241.043 116.686C241.043 116.731 241.043 116.791 241.043 116.847L241.951 117.373C242.045 117.378 242.139 117.378 242.233 117.373C242.499 117.334 242.787 117.295 243.019 117.24C243.182 117.204 243.352 117.217 243.506 117.279C243.556 117.29 243.601 117.317 243.634 117.356C243.733 117.478 243.833 117.605 243.944 117.727L244.209 117.993C244.283 118.053 244.375 118.087 244.47 118.087L245.389 118.153C245.522 118.153 245.61 118.153 245.654 118.07C245.752 117.925 245.839 117.774 245.915 117.616C245.959 117.506 246.059 117.445 246.258 117.428C246.296 117.42 246.336 117.42 246.374 117.428L247.022 117.627L247.509 117.755C247.594 117.779 247.686 117.769 247.764 117.727C247.941 117.622 248.113 117.511 248.317 117.411C248.522 117.312 248.445 117.279 248.367 117.184C248.29 117.09 248.096 116.852 247.941 116.686C247.786 116.52 247.808 116.498 247.88 116.41C247.895 116.391 247.913 116.375 247.934 116.363C247.955 116.352 247.978 116.345 248.002 116.343C248.317 116.293 248.622 116.232 248.932 116.177C249.059 116.177 249.104 116.094 249.081 116.011C249.059 115.928 248.998 115.684 248.976 115.529C248.954 115.374 248.882 115.352 248.71 115.302ZM248.489 115.928L247.631 116.072L247.487 116.1C247.471 116.121 247.455 116.141 247.437 116.16C247.387 116.249 247.349 116.338 247.299 116.421C247.249 116.504 247.299 116.526 247.337 116.592L247.825 117.146C247.863 117.19 247.858 117.212 247.825 117.234L247.526 117.411C247.481 117.445 247.437 117.439 247.365 117.411L246.441 117.129C246.341 117.102 246.236 117.102 246.136 117.129L245.715 117.201C245.68 117.203 245.646 117.213 245.616 117.232C245.586 117.25 245.561 117.276 245.544 117.306C245.455 117.478 245.361 117.649 245.267 117.821C245.267 117.849 245.228 117.854 245.173 117.854L244.652 117.816C244.628 117.816 244.605 117.811 244.583 117.801C244.561 117.792 244.541 117.778 244.525 117.76L244.06 117.207C244.003 117.135 243.923 117.086 243.833 117.068L243.357 116.924C243.262 116.903 243.164 116.903 243.069 116.924L242.189 117.085C242.143 117.092 242.095 117.083 242.056 117.057L241.652 116.825C241.602 116.797 241.591 116.775 241.607 116.747L241.89 116.255C241.908 116.226 241.914 116.192 241.908 116.16C241.902 116.127 241.883 116.097 241.857 116.077C241.779 115.994 241.702 115.906 241.63 115.817C241.557 115.746 241.468 115.694 241.369 115.668L240.423 115.391C240.356 115.391 240.334 115.352 240.329 115.314C240.323 115.275 240.29 115.12 240.268 115.026C240.246 114.932 240.268 114.97 240.329 114.959L241.209 114.815C241.297 114.815 241.358 114.771 241.38 114.716C241.403 114.66 241.463 114.55 241.513 114.472C241.563 114.395 241.513 114.361 241.475 114.295L240.976 113.741C240.976 113.708 240.976 113.692 240.976 113.67L241.303 113.481C241.323 113.471 241.344 113.466 241.367 113.466C241.389 113.466 241.411 113.471 241.43 113.481L242.366 113.769C242.473 113.796 242.585 113.796 242.693 113.769L243.097 113.697C243.133 113.695 243.167 113.685 243.198 113.666C243.229 113.648 243.255 113.623 243.274 113.592C243.362 113.426 243.457 113.26 243.54 113.094C243.54 113.055 243.6 113.044 243.672 113.05L244.165 113.083C244.188 113.081 244.212 113.086 244.233 113.095C244.254 113.105 244.273 113.12 244.287 113.138C244.442 113.321 244.603 113.503 244.752 113.692C244.818 113.764 244.905 113.815 245.001 113.836L245.461 113.974C245.557 113.996 245.657 113.996 245.754 113.974L246.618 113.819C246.644 113.812 246.672 113.812 246.698 113.816C246.725 113.821 246.75 113.831 246.773 113.847C246.895 113.924 247.022 113.996 247.155 114.068C247.288 114.14 247.227 114.123 247.21 114.162C247.11 114.323 247.022 114.483 246.928 114.644C246.911 114.673 246.905 114.708 246.911 114.741C246.917 114.775 246.935 114.805 246.961 114.826C247.043 114.907 247.121 114.992 247.194 115.081C247.261 115.155 247.35 115.208 247.448 115.231L248.389 115.507C248.461 115.507 248.483 115.546 248.489 115.59C248.506 115.687 248.528 115.783 248.555 115.878C248.555 115.906 248.544 115.917 248.489 115.928Z" fill="white"/>
<path fill-rule="evenodd" clip-rule="evenodd" d="M245.45 114.832C245.098 114.625 244.703 114.502 244.295 114.473C243.888 114.444 243.48 114.51 243.102 114.666C242.549 114.987 242.665 115.601 243.39 116.022C243.741 116.23 244.136 116.354 244.544 116.384C244.951 116.414 245.36 116.349 245.737 116.194C246.286 115.867 246.153 115.253 245.45 114.832ZM245.328 115.939C245.068 116.047 244.787 116.093 244.506 116.074C244.226 116.055 243.954 115.971 243.711 115.828C243.213 115.541 243.124 115.125 243.512 114.893C243.772 114.785 244.053 114.739 244.333 114.758C244.614 114.777 244.886 114.861 245.128 115.004C245.605 115.303 245.693 115.718 245.306 115.95L245.328 115.939Z" fill="white"/>
<path d="M185.47 144.009L194.245 149.057L194.599 148.847L185.83 143.799L185.47 144.009Z" fill="white"/>
<path d="M190.176 145.78L195.053 148.587L195.408 148.377L190.536 145.57L190.176 145.78Z" fill="white"/>
<path d="M190.303 144.812L195.95 148.061L196.304 147.856L190.663 144.602L190.303 144.812Z" fill="white"/>
<path d="M193.868 145.902L196.775 147.58L197.135 147.369L194.228 145.698L193.868 145.902Z" fill="white"/>
<path d="M193.359 144.646L197.605 147.093L197.965 146.888L193.719 144.436L193.359 144.646Z" fill="white"/>
<path d="M138.583 120.29L178.317 143.389L242.51 105.903L202.776 82.8042L138.583 120.29Z" fill="url(#paint4_linear)"/>
<path d="M204.636 90.2328L155.253 119.072C155.036 119.198 154.856 119.379 154.73 119.597C154.605 119.814 154.539 120.061 154.539 120.312C154.539 120.563 154.605 120.81 154.73 121.028C154.856 121.245 155.036 121.426 155.253 121.552L185.459 139.11L237.699 108.61L206.087 90.2328C205.867 90.1049 205.616 90.0376 205.362 90.0376C205.107 90.0376 204.857 90.1049 204.636 90.2328Z" fill="white"/>
<path d="M75.4092 84.1327L135.843 118.707L200.03 81.2211L139.596 46.647L75.4092 84.1327Z" fill="url(#paint5_linear)"/>
<path d="M222.38 131.327L219.856 129.866L221.749 128.759C221.794 128.736 221.832 128.702 221.86 128.659C221.871 128.642 221.879 128.622 221.883 128.601C221.886 128.581 221.886 128.559 221.88 128.539C221.875 128.519 221.866 128.5 221.853 128.483C221.839 128.467 221.823 128.453 221.804 128.443C221.739 128.416 221.669 128.405 221.598 128.411C221.528 128.417 221.46 128.439 221.4 128.477L219.429 129.634L216.833 128.139C216.767 128.088 216.687 128.057 216.604 128.049C216.521 128.041 216.437 128.057 216.362 128.095C216.307 128.178 216.362 128.288 216.55 128.388L219.075 129.838L217.215 130.973C217.171 130.997 217.133 131.031 217.104 131.073C217.091 131.09 217.083 131.11 217.079 131.131C217.075 131.152 217.075 131.173 217.081 131.194C217.086 131.214 217.096 131.234 217.109 131.25C217.123 131.266 217.14 131.28 217.159 131.289C217.221 131.321 217.289 131.337 217.359 131.337C217.428 131.337 217.496 131.321 217.558 131.289L219.529 130.137L222.125 131.632C222.264 131.709 222.458 131.77 222.552 131.715H222.585C222.618 131.527 222.546 131.427 222.38 131.327Z" fill="white"/>
<path d="M136.729 69.9952C130.639 65.6886 120.574 65.0133 114.263 68.4508C107.951 71.8883 107.78 78.1765 113.881 82.4775C114.254 82.7439 114.64 82.9915 115.038 83.2193C120.701 86.5405 128.967 87.1771 134.863 84.7304C135.372 84.524 135.869 84.2893 136.352 84.0274C142.664 80.601 142.835 74.2962 136.729 69.9952Z" fill="url(#paint6_linear)"/>
<path d="M125.474 72.259C124.472 71.7456 123.364 71.4756 122.238 71.4708C121.113 71.466 120.002 71.7265 118.996 72.2314C117.208 73.2554 117.214 74.9216 118.996 75.9567C120.002 76.4637 121.112 76.7279 122.238 76.7279C123.364 76.7279 124.474 76.4637 125.479 75.9567C127.273 74.9603 127.267 73.2942 125.474 72.259Z" fill="white"/>
<path d="M125.313 75.8847C122.119 77.7169 122.124 80.7005 125.313 82.5272L136.884 75.9124C133.701 74.0801 128.513 74.058 125.313 75.8847Z" fill="white"/>
<path fill-rule="evenodd" clip-rule="evenodd" d="M138.074 102.001L142.099 104.287L169.814 87.6255L165.789 85.3394L138.074 102.001Z" fill="#DAF0F5"/>
<path d="M153.642 95.5022C153.548 95.5323 153.467 95.5951 153.415 95.6793C153.372 95.7552 153.359 95.8444 153.378 95.9295C153.398 96.0145 153.449 96.0892 153.52 96.1387C153.626 96.2194 153.751 96.2723 153.882 96.2926C154.014 96.3129 154.148 96.3 154.273 96.255C154.367 96.2232 154.447 96.1608 154.5 96.0779C154.542 96.0025 154.554 95.9145 154.535 95.8308C154.515 95.747 154.466 95.6733 154.395 95.624C154.289 95.5437 154.165 95.4907 154.034 95.4694C153.903 95.4482 153.768 95.4595 153.642 95.5022Z" fill="#01C5E2"/>
<path d="M151.787 96.6535C151.692 96.6841 151.611 96.7492 151.56 96.8362C151.519 96.9115 151.507 96.9995 151.526 97.0833C151.546 97.1671 151.595 97.2407 151.666 97.2901C151.772 97.3704 151.896 97.4234 152.027 97.4447C152.158 97.4659 152.293 97.4546 152.419 97.4119C152.512 97.3776 152.592 97.3134 152.646 97.2292C152.688 97.1542 152.701 97.0658 152.682 96.9817C152.662 96.8976 152.612 96.8239 152.54 96.7753C152.434 96.6951 152.31 96.642 152.179 96.6208C152.048 96.5996 151.913 96.6108 151.787 96.6535Z" fill="#01C5E2"/>
<path d="M149.933 97.7607C149.839 97.7943 149.759 97.8586 149.706 97.9434C149.664 98.0187 149.652 98.1067 149.671 98.1905C149.691 98.2743 149.74 98.3479 149.811 98.3973C149.918 98.4776 150.043 98.5306 150.175 98.5519C150.307 98.5731 150.443 98.5618 150.569 98.5191C150.661 98.4834 150.738 98.4194 150.791 98.3364C150.834 98.2614 150.847 98.173 150.827 98.0889C150.808 98.0047 150.757 97.9311 150.686 97.8825C150.58 97.8023 150.456 97.7492 150.324 97.728C150.193 97.7067 150.059 97.718 149.933 97.7607Z" fill="#01C5E2"/>
<path d="M148.078 98.8678C147.984 98.8991 147.904 98.9616 147.851 99.0449C147.809 99.1202 147.797 99.2082 147.817 99.292C147.836 99.3758 147.886 99.4494 147.956 99.4988C148.063 99.5791 148.188 99.6321 148.32 99.6534C148.453 99.6746 148.588 99.6633 148.715 99.6206C148.807 99.5867 148.885 99.5223 148.936 99.4379C148.979 99.3629 148.992 99.2745 148.972 99.1904C148.953 99.1062 148.902 99.0325 148.831 98.984C148.725 98.9033 148.601 98.8504 148.469 98.8301C148.338 98.8098 148.203 98.8228 148.078 98.8678Z" fill="#01C5E2"/>
<path d="M146.224 100.003C146.132 100.035 146.054 100.097 146.002 100.18C145.959 100.256 145.946 100.345 145.965 100.43C145.985 100.515 146.035 100.59 146.107 100.639C146.214 100.718 146.338 100.769 146.47 100.789C146.601 100.81 146.735 100.798 146.86 100.755C146.954 100.723 147.032 100.658 147.082 100.573C147.124 100.498 147.137 100.409 147.118 100.325C147.098 100.241 147.048 100.167 146.976 100.119C146.871 100.038 146.746 99.9852 146.615 99.9649C146.483 99.9446 146.349 99.9575 146.224 100.003Z" fill="#01C5E2"/>
<path d="M144.369 101.126C144.277 101.158 144.199 101.221 144.147 101.303C144.104 101.379 144.091 101.468 144.111 101.554C144.13 101.639 144.181 101.713 144.253 101.763C144.359 101.841 144.484 101.893 144.615 101.913C144.746 101.933 144.88 101.922 145.006 101.879C145.098 101.846 145.177 101.783 145.233 101.702C145.274 101.626 145.287 101.537 145.267 101.452C145.248 101.367 145.198 101.293 145.127 101.242C145.021 101.161 144.895 101.108 144.763 101.088C144.63 101.068 144.495 101.081 144.369 101.126Z" fill="#01C5E2"/>
<path d="M142.52 102.25C142.425 102.28 142.345 102.343 142.293 102.427C142.25 102.503 142.236 102.592 142.256 102.677C142.275 102.762 142.326 102.837 142.398 102.887C142.505 102.965 142.629 103.017 142.76 103.037C142.891 103.057 143.025 103.045 143.151 103.003C143.245 102.973 143.326 102.91 143.378 102.826C143.42 102.75 143.432 102.661 143.413 102.576C143.393 102.491 143.343 102.417 143.273 102.366C143.167 102.286 143.042 102.233 142.911 102.212C142.779 102.192 142.645 102.205 142.52 102.25Z" fill="#01C5E2"/>
<path fill-rule="evenodd" clip-rule="evenodd" d="M144.646 105.732L148.67 108.018L176.385 91.3618L172.36 89.0757L144.646 105.732Z" fill="#DAF0F5"/>
<path d="M154.351 102.438C154.26 102.472 154.182 102.534 154.129 102.615C154.086 102.691 154.073 102.78 154.092 102.866C154.112 102.951 154.162 103.025 154.234 103.075C154.34 103.155 154.464 103.208 154.596 103.229C154.727 103.249 154.862 103.236 154.987 103.191C155.082 103.161 155.162 103.098 155.214 103.014C155.256 102.939 155.268 102.851 155.249 102.767C155.229 102.683 155.179 102.609 155.109 102.56C155.002 102.48 154.877 102.427 154.745 102.405C154.613 102.384 154.477 102.395 154.351 102.438Z" fill="#01C5E2"/>
<path d="M152.502 103.562C152.408 103.596 152.328 103.66 152.275 103.744C152.233 103.82 152.221 103.908 152.24 103.992C152.26 104.075 152.309 104.149 152.38 104.198C152.487 104.279 152.612 104.332 152.744 104.354C152.876 104.375 153.011 104.363 153.138 104.32C153.231 104.286 153.309 104.222 153.36 104.137C153.402 104.062 153.415 103.974 153.396 103.89C153.376 103.806 153.326 103.732 153.254 103.684C153.148 103.603 153.024 103.55 152.893 103.529C152.762 103.508 152.627 103.519 152.502 103.562Z" fill="#01C5E2"/>
<path d="M150.647 104.686C150.553 104.719 150.473 104.784 150.42 104.868C150.378 104.944 150.366 105.032 150.385 105.115C150.405 105.199 150.455 105.273 150.525 105.322C150.631 105.402 150.755 105.455 150.886 105.477C151.018 105.498 151.152 105.487 151.278 105.444C151.373 105.412 151.453 105.347 151.505 105.261C151.548 105.186 151.561 105.098 151.541 105.014C151.522 104.93 151.471 104.856 151.4 104.807C151.294 104.727 151.17 104.674 151.038 104.653C150.907 104.632 150.773 104.643 150.647 104.686Z" fill="#01C5E2"/>
<path d="M148.792 105.815C148.699 105.846 148.618 105.908 148.565 105.992C148.524 106.067 148.512 106.155 148.531 106.239C148.55 106.323 148.6 106.396 148.671 106.446C148.778 106.526 148.903 106.579 149.035 106.6C149.167 106.621 149.302 106.61 149.429 106.567C149.52 106.533 149.597 106.471 149.65 106.39C149.694 106.314 149.707 106.225 149.687 106.14C149.668 106.055 149.617 105.98 149.545 105.931C149.439 105.85 149.315 105.797 149.184 105.777C149.052 105.757 148.918 105.77 148.792 105.815Z" fill="#01C5E2"/>
<path fill-rule="evenodd" clip-rule="evenodd" d="M162.96 78.9403L160.441 77.5067C159.536 76.9927 158.512 76.7285 157.472 76.7412C156.432 76.7538 155.414 77.0429 154.522 77.5786L127.195 94.0022C126.799 94.235 126.471 94.5685 126.245 94.969C126.019 95.3694 125.903 95.8225 125.908 96.2822C125.914 96.742 126.041 97.1921 126.277 97.5869C126.513 97.9816 126.849 98.3071 127.251 98.5301L129.775 99.9638C130.679 100.475 131.703 100.738 132.741 100.725C133.78 100.712 134.797 100.425 135.688 99.8918L163.015 83.4683C163.41 83.2343 163.736 82.9004 163.961 82.5001C164.186 82.0999 164.302 81.6474 164.296 81.1883C164.291 80.7292 164.164 80.2797 163.929 79.8851C163.695 79.4904 163.36 79.1646 162.96 78.9403Z" fill="#DAF0F5"/>
<path d="M147.967 119.238L148.239 120.4L146.279 120.257L146.362 120.611L148.831 120.793L148.477 119.277L147.967 119.238Z" fill="white"/>
<path d="M83.0217 83.3079L83.293 84.4703L81.3276 84.3264L81.4107 84.6806L83.8854 84.8633L83.5311 83.3466L83.0217 83.3079Z" fill="white"/>
<path d="M196.365 110.492C195.197 110.996 194.776 111.953 194.981 112.784C193.595 112.574 192.178 112.784 190.912 113.387C189.069 114.367 188.067 116.537 189.805 117.644C190.485 118.019 191.219 118.286 191.981 118.435C193.531 118.745 196.864 119.149 202.787 118.773C203.944 115.396 203.585 113.415 203.125 112.524C201.525 109.385 197.999 109.795 196.365 110.492Z" fill="url(#paint7_linear)"/>
<path d="M86.515 1.16782L65.4053 13.5893C64.8906 13.887 64.4632 14.3148 64.1659 14.8296C63.8685 15.3445 63.7117 15.9285 63.7112 16.523V39.9267C63.7128 40.2441 63.7975 40.5555 63.957 40.83C64.1165 41.1044 64.3452 41.3322 64.6202 41.4907C64.8953 41.6492 65.2071 41.7329 65.5245 41.7333C65.842 41.7337 66.154 41.651 66.4295 41.4932L88.3198 28.6068C88.5961 28.4506 88.8258 28.2237 88.9854 27.9493C89.1449 27.675 89.2286 27.3632 89.2278 27.0458V2.72881C89.228 2.41138 89.1445 2.0995 88.9857 1.82465C88.8269 1.5498 88.5983 1.3217 88.3232 1.16337C88.048 1.00503 87.736 0.922075 87.4185 0.922857C87.101 0.923639 86.7894 1.00814 86.515 1.16782Z" fill="#EFEFEF"/>
<path d="M86.4375 1.16806L65.3997 13.5895C64.881 13.885 64.449 14.3116 64.1468 14.8264C63.8447 15.3412 63.683 15.9264 63.678 16.5233V39.927C63.6783 40.2436 63.7619 40.5545 63.9204 40.8286C64.079 41.1027 64.3068 41.3302 64.5812 41.4884C64.8555 41.6466 65.1666 41.7298 65.4832 41.7297C65.7999 41.7296 66.111 41.6462 66.3852 41.4879L88.2756 28.6126C88.5431 28.4505 88.7622 28.2197 88.9102 27.9442C89.0582 27.6687 89.1297 27.3586 89.1171 27.0461V2.72905C89.1242 2.41256 89.0465 2.09993 88.8918 1.82369C88.7372 1.54744 88.5114 1.31768 88.2378 1.15831C87.9642 0.998943 87.6529 0.915792 87.3363 0.917506C87.0197 0.919221 86.7093 1.00574 86.4375 1.16806Z" fill="#FF1F74"/>
<path d="M84.4058 0.752816L65.1618 12.1059C64.1099 12.7093 62.521 14.0156 62.521 16.1744V39.1132C62.521 41.5266 64.6192 41.9473 65.6822 41.7314C65.4442 41.7526 65.2043 41.7263 64.9765 41.6541C64.7486 41.5819 64.5375 41.4651 64.3551 41.3107C64.1728 41.1562 64.023 40.967 63.9144 40.7542C63.8057 40.5413 63.7405 40.309 63.7224 40.0708C63.7224 40.021 63.7224 39.9767 63.7224 39.9269V16.5176C63.7221 15.9251 63.878 15.3429 64.1745 14.8298C64.4709 14.3167 64.8974 13.8907 65.4109 13.5949L86.5151 1.16244C86.9123 0.933807 87.3813 0.863806 87.8279 0.966471C88.2746 1.06914 88.6659 1.33687 88.9234 1.71598C88.8182 0.426227 87.3566 -0.857986 84.4058 0.752816Z" fill="url(#paint8_linear)"/>
<path d="M80.0377 12.3772C78.4126 13.4112 77.1357 14.9097 76.3727 16.6782C75.5534 15.8313 74.2081 15.7427 72.6911 16.6173C70.2054 18.0565 68.1902 21.5383 68.2012 24.4001C68.1965 25.2266 68.4332 26.0365 68.8822 26.7305C69.6628 27.8375 71.6503 29.7805 76.4115 30.8986C81.1727 24.2561 83.127 20.0935 83.8965 18.062C84.2768 17.0674 84.5009 16.0199 84.5609 14.9567C84.5609 12.0949 82.529 10.938 80.0377 12.3772Z" fill="white"/>
<defs>
<linearGradient id="paint0_linear" x1="146.65" y1="113.62" x2="112.403" y2="157.454" gradientUnits="userSpaceOnUse">
<stop stop-color="#EAE9EE"/>
<stop offset="0.24" stop-color="#F0EFF3"/>
<stop offset="1" stop-color="white"/>
</linearGradient>
<linearGradient id="paint1_linear" x1="111.7" y1="31.2972" x2="226.069" y2="170.187" gradientUnits="userSpaceOnUse">
<stop stop-color="#FF946E"/>
<stop offset="0.11" stop-color="#FF906E"/>
<stop offset="0.21" stop-color="#FF856F"/>
<stop offset="0.3" stop-color="#FF7270"/>
<stop offset="0.4" stop-color="#FF5871"/>
<stop offset="0.49" stop-color="#FF3673"/>
<stop offset="0.54" stop-color="#FF1F74"/>
<stop offset="1" stop-color="#8F1B73"/>
</linearGradient>
<linearGradient id="paint2_linear" x1="79.6279" y1="63.9671" x2="251.327" y2="133.349" gradientUnits="userSpaceOnUse">
<stop stop-color="#00CBF2"/>
<stop offset="0.2" stop-color="#00AFD9"/>
<stop offset="0.62" stop-color="#016999"/>
<stop offset="1" stop-color="#01275D"/>
</linearGradient>
<radialGradient id="paint3_radial" cx="0" cy="0" r="1" gradientUnits="userSpaceOnUse" gradientTransform="translate(213.201 116.039) scale(44.0243 44.0175)">
<stop stop-color="#FFFDFE"/>
<stop offset="0.86" stop-color="#FFFDFE"/>
<stop offset="1" stop-color="#FFFDFE"/>
</radialGradient>
<linearGradient id="paint4_linear" x1="138.583" y1="113.094" x2="242.51" y2="113.094" gradientUnits="userSpaceOnUse">
<stop stop-color="#E2F4F7"/>
<stop offset="0.17" stop-color="#C2EEF4"/>
<stop offset="0.54" stop-color="#6FDDED"/>
<stop offset="1" stop-color="#01C7E3"/>
</linearGradient>
<linearGradient id="paint5_linear" x1="17050" y1="10809.5" x2="45102.2" y2="10809.5" gradientUnits="userSpaceOnUse">
<stop stop-color="#E2F4F7"/>
<stop offset="0.17" stop-color="#C2EEF4"/>
<stop offset="0.54" stop-color="#6FDDED"/>
<stop offset="1" stop-color="#01C7E3"/>
</linearGradient>
<linearGradient id="paint6_linear" x1="11243.3" y1="5176.41" x2="13068" y2="5176.41" gradientUnits="userSpaceOnUse">
<stop stop-color="#FF946E"/>
<stop offset="0.11" stop-color="#FF906E"/>
<stop offset="0.21" stop-color="#FF856F"/>
<stop offset="0.3" stop-color="#FF7270"/>
<stop offset="0.4" stop-color="#FF5871"/>
<stop offset="0.49" stop-color="#FF3673"/>
<stop offset="0.54" stop-color="#FF1F74"/>
<stop offset="1" stop-color="#8F1B73"/>
</linearGradient>
<linearGradient id="paint7_linear" x1="7428.16" y1="3011.94" x2="7816.75" y2="3011.94" gradientUnits="userSpaceOnUse">
<stop stop-color="#FF946E"/>
<stop offset="0.11" stop-color="#FF906E"/>
<stop offset="0.21" stop-color="#FF856F"/>
<stop offset="0.3" stop-color="#FF7270"/>
<stop offset="0.4" stop-color="#FF5871"/>
<stop offset="0.49" stop-color="#FF3673"/>
<stop offset="0.54" stop-color="#FF1F74"/>
<stop offset="1" stop-color="#8F1B73"/>
</linearGradient>
<linearGradient id="paint8_linear" x1="7074.46" y1="6523.27" x2="8333.59" y2="6523.27" gradientUnits="userSpaceOnUse">
<stop stop-color="#FF946E"/>
<stop offset="0.11" stop-color="#FF906E"/>
<stop offset="0.21" stop-color="#FF856F"/>
<stop offset="0.3" stop-color="#FF7270"/>
<stop offset="0.4" stop-color="#FF5871"/>
<stop offset="0.49" stop-color="#FF3673"/>
<stop offset="0.54" stop-color="#FF1F74"/>
<stop offset="1" stop-color="#8F1B73"/>
</linearGradient>
</defs>
</svg>
