<svg width="320" height="1007" viewBox="0 0 320 1007" fill="none" xmlns="http://www.w3.org/2000/svg">
<path d="M1216.71 -37.4508C1146.49 39.7269 1037.02 92.1057 921.71 92.2052C872 92.2545 822.36 83.8596 772.791 87.0695C704.131 91.5101 637.936 119.115 591.793 162.526C591.793 162.526 559.933 213.391 478.407 331.786C396.882 450.18 239.877 528.957 83.0345 499.094C-73.8081 469.231 -131.559 503.811 -131.559 503.811C-185.9 530.766 -231.206 577.636 -232.331 631.114C-233.425 682.618 -194.708 728.65 -184.644 779.43C-168.092 862.959 -236.348 947.473 -327.51 981.657C-379.399 1001.16 -436.351 1006.63 -492.998 1002.2L-491.443 -39.9999L1216.71 -37.4508Z" fill="url(#paint0_linear)"/>
<defs>
<linearGradient id="paint0_linear" x1="829.172" y1="910.542" x2="426.36" y2="-90.0804" gradientUnits="userSpaceOnUse">
<stop stop-color="#9EE6F1"/>
<stop offset="1" stop-color="#EAFCFF" stop-opacity="0"/>
</linearGradient>
</defs>
</svg>
