<svg width="1280" height="740" viewBox="0 0 1280 740" fill="none" xmlns="http://www.w3.org/2000/svg">
<g clip-path="url(#clip0)">
<mask id="mask0" mask-type="alpha" maskUnits="userSpaceOnUse" x="0" y="0" width="1920" height="740">
<path d="M0 0H1920V740C862.629 740 442.971 740 0 740V0Z" fill="#C4C4C4"/>
</mask>
<g mask="url(#mask0)">
<rect width="1920" height="740" fill="white"/>
<path d="M527 703C302.431 733.4 79.562 639 -3 603V-119L1995 -131V811C1974.82 794.333 1861.01 603.232 1517 567C1032.64 515.986 807.711 665 527 703Z" fill="#031E4D"/>
<ellipse opacity="0.5" cx="747.5" cy="488" rx="157.5" ry="12" fill="url(#paint0_linear)"/>
<path d="M871.212 256.87C871.212 256.87 879.296 256.791 881.456 257.33C883.612 257.868 893.921 256.564 895.693 259.072C897.465 261.579 892.349 260.908 892.349 260.908C892.349 260.908 871.118 263.488 871.212 256.87Z" fill="url(#paint1_linear)"/>
<path d="M893.139 266.395C891.367 263.888 881.057 265.191 878.901 264.653C878.691 264.6 878.423 264.554 878.111 264.513C879.137 260.358 879.322 257.023 879.322 257.023C877.992 255.254 876.684 254.015 875.977 253.402C877.927 251.451 879.735 252.208 881.423 252.465C883.619 252.798 887.105 251.881 886.776 249.921C886.453 247.991 883.482 248.324 881.086 247.129C877.035 245.108 873.575 247.815 873.575 247.815C873.575 247.815 870.868 248.724 868.48 250.353C856.754 253.416 844.89 251.063 844.89 251.063L844.365 265.014C844.365 265.014 856.069 264.683 860.04 265.717C864.353 266.839 867.154 269.718 869.578 270.914C870.759 271.496 873.919 272.028 875.238 271.6C880.025 272.168 884.565 271.889 884.565 271.889C884.565 271.889 889.682 272.56 887.913 270.052C887.366 269.278 886.004 268.868 884.322 268.654C887.45 268.516 889.794 268.232 889.794 268.232C889.794 268.232 894.911 268.903 893.139 266.395Z" fill="url(#paint2_linear)"/>
<path d="M727.895 370.825L741.586 406.517L741.61 406.571C746.658 416.398 750.242 425.99 725.406 429.755C725.26 429.78 725.113 429.809 724.97 429.849L679.959 442.329C679.64 442.416 679.464 442.76 679.577 443.068L685.491 459.284C685.583 459.534 685.832 459.686 686.097 459.65C691.575 458.911 737.666 455.649 757.291 453.153C779.535 450.323 784.709 439.049 782.234 423.845L768.767 356.953C767.439 348.799 768.215 324.897 764.075 322.96C759.085 320.625 722.978 305.031 724.289 354.995C724.317 356.063 727.513 369.828 727.895 370.825Z" fill="url(#paint3_linear)"/>
<path d="M669.712 489.331C669.164 488.936 668.623 488.526 668.087 488.106C665.735 486.262 663.588 484.251 661.654 482.102C658.195 473.242 657.28 463.534 659.052 454.156C658.108 453.91 657.154 453.711 656.191 453.558C655.333 451.453 654.53 449.333 653.79 447.203C656.234 446.902 658.664 446.3 661.027 445.387C661.232 445.308 661.436 445.224 661.641 445.141C663.05 444.561 664.432 443.865 665.777 443.054C668.076 448.725 669.951 454.493 671.414 460.313C669.485 465.603 668.478 471.119 668.368 476.626C668.28 480.899 668.732 485.171 669.712 489.331Z" fill="url(#paint4_linear)"/>
<path d="M972.104 484.442C966.401 485.809 960.552 486.838 954.577 487.508C949.152 488.117 943.771 488.41 938.441 488.407C937.184 487.03 935.814 485.761 934.346 484.616C933.321 485.754 932.375 486.964 931.516 488.236C929.059 488.113 926.614 487.932 924.186 487.682C925.008 485.149 925.53 482.493 925.715 479.757C925.838 477.88 925.805 475.967 925.599 474.032C932.382 474.38 939.061 475.21 945.598 476.492C954.747 478.286 963.618 480.964 972.104 484.442Z" fill="url(#paint5_linear)"/>
<path d="M705.52 238.476C714.801 232.163 725.247 225.335 736.255 221.948C741.412 220.362 745.867 218.728 750.319 221.776C780.527 242.453 819.521 254.97 854.656 249.625C855.62 249.481 856.576 249.325 857.537 249.159C857.982 250.634 858.399 252.113 858.794 253.597C860.939 261.65 859.316 264.877 859.066 274.528C788.916 279.313 751.635 269.59 705.52 238.476Z" fill="url(#paint6_linear)"/>
<path d="M659.59 210.508C659.588 210.566 659.585 212.076 659.583 212.134C659.229 221.636 664.282 231.646 672.613 236.228C673.51 236.721 674.397 237.226 675.277 237.743C704.053 254.65 716.908 295.112 723.654 328.496C723.709 328.768 723.897 328.995 724.155 329.095C724.52 329.238 724.884 329.377 725.25 329.515C726.29 329.908 727.337 330.285 728.393 330.646C734.247 332.654 740.296 335.694 746.678 335.191C772.353 333.17 777.426 329.285 777.426 329.285C774.02 326.095 772.777 320.958 769.585 313.904C768.015 310.432 767.032 307.353 765.971 304.728C761.15 292.806 757.93 268.494 754.705 255.161C754.42 253.984 754.154 252.8 753.909 251.61C751.805 241.419 749.005 233.484 749.987 222.666L750.319 221.775C745.415 218.904 740.249 216.402 734.85 214.309L734.833 214.302C732.223 213.29 729.559 212.374 726.844 211.563C725.286 211.092 723.71 210.657 722.12 210.258C718.99 209.468 715.798 208.816 712.548 208.298C712.265 208.254 711.981 208.211 711.697 208.167C699.422 206.312 689.257 206.37 675.745 207.649C670.152 208.182 664.822 208.667 659.59 210.508Z" fill="url(#paint7_linear)"/>
<path d="M755.267 204.627C753.932 208.914 753.559 213.298 754.039 217.536C752.06 217.057 750.068 216.777 748.086 216.689C740.207 216.33 732.503 218.955 726.501 223.908C720.549 220.769 715.677 215.298 714.996 208.45C716.912 206.468 721.823 201.279 723.204 198.764C725.79 198.739 728.297 197.884 730.348 196.354C730.303 195.659 730.409 194.941 730.683 194.249C731.324 192.633 732.729 191.557 734.316 191.26C735.189 191.096 736.116 191.169 737.001 191.52C737.075 191.549 737.149 191.582 737.22 191.615C737.361 190.836 737.582 190.06 737.884 189.296C740.363 183.056 747.432 180.008 753.673 182.487C753.711 182.501 753.75 182.516 753.788 182.534C753.797 182.621 753.807 182.711 753.817 182.798C754.264 186.763 755.175 190.644 756.514 194.369C756.982 195.669 757.502 196.949 758.072 198.206C758.442 199.021 758.832 199.826 759.244 200.619C759.849 201.79 760.499 202.935 761.195 204.055C759.239 204.363 757.261 204.555 755.267 204.627Z" fill="url(#paint8_linear)"/>
<path d="M755.258 180.516C754.944 181.306 754.509 182.009 753.982 182.614L753.897 182.577C753.852 182.472 753.806 182.371 753.761 182.266C753.77 182.353 753.778 182.443 753.788 182.534C753.75 182.516 753.711 182.501 753.673 182.487C747.432 180.008 740.363 183.056 737.884 189.296C737.582 190.06 737.361 190.836 737.22 191.615C737.148 191.582 737.075 191.55 737.001 191.521C736.116 191.169 735.189 191.097 734.316 191.26C732.729 191.557 731.324 192.633 730.683 194.249C730.409 194.941 730.303 195.659 730.348 196.354C728.297 197.884 725.79 198.739 723.204 198.764C723.557 198.123 723.89 197.463 724.203 196.789C724.352 196.467 724.495 196.144 724.631 195.822C726.76 190.796 727.487 185.509 726.979 180.403C726.839 178.997 726.605 177.602 726.279 176.233C727.71 176.559 729.145 176.823 730.581 177.026C730.653 177.037 730.724 177.048 730.795 177.055C734.271 177.53 737.748 177.638 741.176 177.403C744.178 177.196 747.144 176.722 750.039 175.997C751.219 175.703 752.385 175.366 753.538 174.986C754.02 174.83 754.497 174.667 754.973 174.497C755.896 176.301 756.065 178.483 755.258 180.516Z" fill="url(#paint9_linear)"/>
<path d="M753.521 196.227C753.346 196.666 753.118 197.061 752.844 197.416C751.203 197.307 749.55 196.985 747.925 196.438C749.991 196.162 751.996 195.561 753.858 194.658C753.836 195.184 753.726 195.713 753.521 196.227Z" fill="#031E4D"/>
<path d="M721.205 227.702L724.392 223.495C717.439 220.272 713.786 208.794 713.786 208.794C711.874 223.868 721.205 227.702 721.205 227.702Z" fill="#031E4D"/>
<path d="M724.392 228.973C724.392 228.973 747.616 254.224 739.958 282.912C737.116 293.559 748.587 298.139 748.587 298.139C748.587 298.139 749.277 284.62 749.843 280.523C751.937 265.376 745.219 238.997 724.392 228.973Z" fill="#031E4D"/>
<path d="M728.399 224.576L727.397 228.989C727.397 228.989 734.597 219.407 733.98 218.963C733.362 218.519 728.399 224.576 728.399 224.576Z" fill="#031E4D"/>
<path d="M595.571 280.082C595.088 281.521 593.753 283.751 590.209 286.556C585.772 290.067 585.259 292.265 585.259 292.265C583.964 292.949 583.549 288.755 586.542 286.401C588.581 284.798 588.371 283.118 587.827 281.56C587.327 281.403 586.812 281.217 586.285 280.994C584.183 280.107 581.883 278.469 579.879 277.128L573.131 276.501C573.131 276.501 565.973 282.471 564.03 280.376C564.03 280.376 565.566 278.252 568.596 276.492C569.56 275.932 570.129 275.449 570.522 275.048C566.589 275.292 562.299 275.589 562.001 273.924C561.861 273.141 574.918 270.812 577.553 271.373C586.836 273.349 594.954 268.291 594.954 268.291L594.947 268.407C597.295 264.06 599.92 260.333 599.92 260.333C604.423 261.405 607.61 265.974 607.61 265.974L595.571 280.082Z" fill="url(#paint10_linear)"/>
<path d="M675.277 237.743C674.398 237.226 673.509 236.721 672.613 236.228C664.282 231.646 659.228 221.635 659.583 212.134C659.585 212.076 659.588 210.566 659.59 210.508C664.822 208.667 670.152 208.182 675.745 207.649C676.274 207.598 676.788 207.555 677.307 207.508C671.968 207.736 666.643 208.453 661.41 209.678C646.929 213.057 633.143 220.245 621.627 231.271C614.016 238.558 597.614 258.234 593.278 267.192C596.572 268.657 599.879 270.333 603.172 272.212C603.185 272.196 605.906 269.237 608.574 266.336C612.725 261.823 617.515 257.931 622.832 254.877C640.581 244.681 660.614 240.072 680.422 240.984C678.75 239.858 677.036 238.776 675.277 237.743Z" fill="url(#paint11_linear)"/>
<path d="M872.114 265.028C872.114 265.028 885.239 266.111 886.881 261.638C888.642 256.831 892.153 253.431 891.138 252.191C890.193 251.036 885.37 254.879 882.55 258.933C880.666 261.644 872.422 259.684 872.473 261.737C872.524 263.79 872.114 265.028 872.114 265.028Z" fill="url(#paint12_linear)"/>
<path d="M880.796 273.475H807.176C807.176 331.175 854.261 377.95 912.341 377.95H1020.74C1023.52 377.95 1026.27 377.841 1029 377.631V315.595H919.38C897.997 315.595 880.663 298.375 880.663 277.134C880.663 275.903 880.708 274.684 880.796 273.475Z" fill="url(#paint13_linear)"/>
<path d="M931.995 225.321H1027.55V169.317C1024.85 169.106 1022.11 169 1019.35 169H911.655C853.956 169 807.178 215.774 807.178 273.474H880.315C882.192 246.567 904.613 225.321 931.995 225.321Z" fill="#32E3F7"/>
<path d="M804.621 342.75C849.999 370.972 910.833 421.363 941.662 462.509C941.662 462.509 938.887 462.563 921.12 466.19C911.257 458.581 888.279 440.847 877.633 434.009C831.479 404.357 794.642 395.628 747.891 377.056C722.833 367.102 720.768 353.959 719.411 344.44C718.359 337.056 719.501 329.043 722.117 320.958C746.682 322.761 769.578 320.958 804.621 342.75Z" fill="url(#paint14_linear)"/>
<mask id="mask1" mask-type="alpha" maskUnits="userSpaceOnUse" x="-3" y="-131" width="1998" height="942">
<path d="M-1.16482 603.8L-3 603V-119L1995 -131V811C1974.82 794.333 1861.01 601.232 1517 565C1032.64 513.986 803.711 667 523 705C300.075 735.177 82.767 640.405 -1.16482 603.8Z" fill="#031E4D"/>
</mask>
<g mask="url(#mask1)">
<path fill-rule="evenodd" clip-rule="evenodd" d="M1422.94 12.2695C1438.9 2.00992 1454.26 -7.85929 1469 -17H1967L2159 291L1935 813L1469 603C1456.66 592.906 1443.98 582.191 1430.88 571.126C1332.24 487.814 1210.08 384.634 1036 377V314H1159C1183.3 314 1203 294.301 1203 270C1203 245.699 1183.3 226 1159 226H1036V169C1188.96 162.641 1318.86 79.1591 1422.94 12.2695Z" fill="url(#paint15_linear)"/>
</g>
<path d="M525.926 673C301.132 703.4 79.6446 639 -3 603V-119L1997 -131V811C1976.8 794.333 1867.52 627.232 1523.17 591C1038.32 539.986 806.917 635 525.926 673Z" fill="url(#paint16_linear)" fill-opacity="0.2"/>
<mask id="mask2" mask-type="alpha" maskUnits="userSpaceOnUse" x="0" y="-24" width="1440" height="700">
<rect y="-24" width="1440" height="700" fill="#FFD61E" fill-opacity="0.8"/>
<rect y="-24" width="1440" height="700" fill="#F9A970"/>
</mask>
<g mask="url(#mask2)">
<path d="M42.7259 213.083L85.1872 344.615L-49.4749 302.897L18.0071 278.753L22.7038 277.072L24.1872 272.331L42.7259 213.083Z" stroke="#213D89" stroke-opacity="0.3" stroke-width="20"/>
<path d="M648.376 160.608L599.652 180.937L610.958 128.025L623.543 149.942L624.244 151.164L625.553 151.676L648.376 160.608Z" stroke="#213D89" stroke-width="8"/>
<path d="M357.207 594.776L407.393 555.588L401.272 620.18L385.304 599.183L384.266 597.818L382.569 597.627L357.207 594.776Z" stroke="#3E1A51" stroke-width="8"/>
</g>
</g>
</g>
<defs>
<linearGradient id="paint0_linear" x1="590" y1="486.423" x2="905" y2="486.423" gradientUnits="userSpaceOnUse">
<stop stop-color="#1E3F6A"/>
<stop offset="1" stop-color="#4C96B9"/>
</linearGradient>
<linearGradient id="paint1_linear" x1="878.51" y1="248.441" x2="888.846" y2="269.021" gradientUnits="userSpaceOnUse">
<stop stop-color="#011C4B"/>
<stop offset="1" stop-color="#F41361"/>
</linearGradient>
<linearGradient id="paint2_linear" x1="810.687" y1="299.315" x2="883.847" y2="249.433" gradientUnits="userSpaceOnUse">
<stop stop-color="#011C4B"/>
<stop offset="0.275955" stop-color="#011C4B"/>
<stop offset="1" stop-color="#F41361"/>
</linearGradient>
<linearGradient id="paint3_linear" x1="704.918" y1="365.002" x2="807.936" y2="499.704" gradientUnits="userSpaceOnUse">
<stop stop-color="#011C4B"/>
<stop offset="0.507629" stop-color="#011C4B"/>
<stop offset="1" stop-color="#F41361"/>
</linearGradient>
<linearGradient id="paint4_linear" x1="653.198" y1="431.636" x2="684.57" y2="523.216" gradientUnits="userSpaceOnUse">
<stop stop-color="#011C4B"/>
<stop offset="0.8839" stop-color="#F41361"/>
<stop offset="1" stop-color="#F41361"/>
</linearGradient>
<linearGradient id="paint5_linear" x1="904.995" y1="484.711" x2="1011.11" y2="472.794" gradientUnits="userSpaceOnUse">
<stop stop-color="#011C4B"/>
<stop offset="1" stop-color="#F41361"/>
</linearGradient>
<linearGradient id="paint6_linear" x1="1054.9" y1="353.663" x2="763.217" y2="244.459" gradientUnits="userSpaceOnUse">
<stop stop-color="#011C4B"/>
<stop offset="0.251121" stop-color="#011C4B"/>
<stop offset="1" stop-color="#F41361"/>
</linearGradient>
<linearGradient id="paint7_linear" x1="672.901" y1="317.98" x2="749.871" y2="236.832" gradientUnits="userSpaceOnUse">
<stop stop-color="#011C4B"/>
<stop offset="0.8839" stop-color="#F41361"/>
<stop offset="1" stop-color="#F41361"/>
</linearGradient>
<linearGradient id="paint8_linear" x1="699.418" y1="206.515" x2="746.481" y2="201.886" gradientUnits="userSpaceOnUse">
<stop stop-color="#011C4B"/>
<stop offset="1" stop-color="#F41361"/>
</linearGradient>
<linearGradient id="paint9_linear" x1="723.233" y1="187.864" x2="758.142" y2="181.491" gradientUnits="userSpaceOnUse">
<stop stop-color="#011C4B"/>
<stop offset="1" stop-color="#F41361"/>
</linearGradient>
<linearGradient id="paint10_linear" x1="593.776" y1="261.004" x2="578.471" y2="277.88" gradientUnits="userSpaceOnUse">
<stop stop-color="#011C4B"/>
<stop offset="1" stop-color="#F41361"/>
</linearGradient>
<linearGradient id="paint11_linear" x1="541.403" y1="269.716" x2="779.608" y2="193.946" gradientUnits="userSpaceOnUse">
<stop stop-color="#011C4B"/>
<stop offset="0.757541" stop-color="#F41361"/>
<stop offset="1" stop-color="#F41361"/>
</linearGradient>
<linearGradient id="paint12_linear" x1="826.051" y1="302.545" x2="879.807" y2="261.713" gradientUnits="userSpaceOnUse">
<stop stop-color="#011C4B"/>
<stop offset="0.633569" stop-color="#011C4B"/>
<stop offset="1" stop-color="#F41361"/>
</linearGradient>
<linearGradient id="paint13_linear" x1="762.88" y1="314.675" x2="1070.05" y2="314.675" gradientUnits="userSpaceOnUse">
<stop stop-color="#011C4B"/>
<stop offset="0.757541" stop-color="#F41361"/>
<stop offset="1" stop-color="#F41361"/>
</linearGradient>
<linearGradient id="paint14_linear" x1="811.759" y1="424.602" x2="882.352" y2="307.905" gradientUnits="userSpaceOnUse">
<stop stop-color="#011C4B"/>
<stop offset="1" stop-color="#F41361"/>
</linearGradient>
<linearGradient id="paint15_linear" x1="1036" y1="343.468" x2="2159" y2="343.468" gradientUnits="userSpaceOnUse">
<stop stop-color="#4C96B9"/>
<stop offset="1" stop-color="#1E3F6A"/>
</linearGradient>
<linearGradient id="paint16_linear" x1="-3" y1="1.99998" x2="785.47" y2="560.995" gradientUnits="userSpaceOnUse">
<stop stop-color="#213D89"/>
<stop offset="1" stop-color="#031E4D" stop-opacity="0"/>
</linearGradient>
<clipPath id="clip0">
<rect width="1280" height="740" fill="white"/>
</clipPath>
</defs>
</svg>
