<svg width="165" height="222" viewBox="0 0 165 222" fill="none" xmlns="http://www.w3.org/2000/svg">
<g opacity="0.55">
<g opacity="0.55">
<path opacity="0.55" d="M71.1555 36.1609L164.351 88.4918L164.743 157.662L71.5471 105.331L71.1555 36.1609Z" fill="url(#paint0_linear)"/>
</g>
</g>
<path d="M71.5742 86.8068L91.1323 63.6104L121.182 133.027L71.5742 105.144V86.8068Z" fill="#D8F1F5"/>
<path d="M164.433 157.662L126.974 73.9517L89.5112 115.554L164.433 157.662Z" fill="#FF1F74"/>
<path d="M139.119 101.087L126.975 103.701L114.83 87.4397L126.975 73.9517L139.119 101.087Z" fill="white"/>
<path d="M101.36 87.2394L91.1324 89.876L80.9048 75.7413L91.1324 63.6104L101.36 87.2394Z" fill="white"/>
<g opacity="0.55">
<g opacity="0.55">
<path opacity="0.55" d="M71.3237 0L164.515 52.3309L164.578 62.9591L71.3829 10.6283L71.3237 0Z" fill="url(#paint1_linear)"/>
</g>
</g>
<g opacity="0.55">
<g opacity="0.55">
<path opacity="0.55" d="M59.8669 12.345L153.058 64.6713L153.122 75.3087L59.9261 22.9733L59.8669 12.345Z" fill="url(#paint2_linear)"/>
</g>
</g>
<path d="M109.953 196.651L24.084 148.568C22.4441 147.65 20.5889 147.185 18.7096 147.222C16.8303 147.259 14.9947 147.796 13.392 148.778L5.04967 153.896C3.47686 154.859 2.18345 156.217 1.29795 157.835C0.412445 159.453 -0.0343158 161.274 0.00205602 163.118C0.0384278 164.962 0.556668 166.764 1.50528 168.346C2.45389 169.927 3.79985 171.233 5.40942 172.134L91.2781 220.22C92.9185 221.138 94.7738 221.602 96.6532 221.565C98.5325 221.527 100.368 220.989 101.97 220.006L110.312 214.893C111.885 213.929 113.178 212.571 114.064 210.952C114.949 209.334 115.396 207.513 115.36 205.669C115.323 203.824 114.805 202.022 113.857 200.44C112.908 198.858 111.562 197.552 109.953 196.651Z" fill="url(#paint3_linear)"/>
<path d="M99.7071 75.837C98.0905 74.398 95.5769 74.6804 94.0195 76.3197C89.6981 81.3287 83.3275 86.0372 77.5625 88.4644C74.1518 89.9033 74.3067 92.927 75.7183 94.6983C76.0216 95.0825 76.3551 95.4419 76.7156 95.773C79.0197 97.9861 81.0416 97.508 83.2319 96.4606C89.4659 93.478 95.117 87.4534 100.012 82.0619C100.786 81.2167 101.199 80.102 101.162 78.9564C101.124 77.8108 100.64 76.7254 99.8118 75.9326L99.7071 75.837Z" fill="#DAF0F5"/>
<path d="M99.2971 49.831C99.0679 49.1973 98.6598 48.6436 98.1222 48.2372L95.2306 46.4157C95.0558 46.6841 94.9905 47.0093 95.0481 47.3244C95.1057 47.6395 95.2818 47.9205 95.5403 48.1097C95.7224 48.2372 97.2843 49.5851 97.2843 49.5851C97.2843 49.5851 97.6122 50.1179 97.3208 50.4321C96.6259 50.291 95.9905 49.9416 95.4993 49.4302C94.666 48.4193 93.3591 45.3866 92.2389 43.4103C91.8837 42.7864 89.7753 41.7072 90.6132 43.7245C90.7771 44.1161 92.6168 46.7345 92.3345 47.4494C91.8791 48.6197 91.1961 49.7809 91.3873 51.3519C91.6287 53.3145 94.4429 55.1178 94.7388 55.4502C95.2671 56.0058 95.1213 62.3946 95.6496 66.7115L101.232 65.3727C101.232 65.3727 99.3882 55.473 98.828 52.9502C98.614 51.8528 99.5885 50.7963 99.2971 49.831Z" fill="#FFC4B1"/>
<path d="M94.2106 57.809C95.0849 64.0065 94.4565 73.501 93.3681 78.3506C93.2052 79.2772 93.3954 80.2311 93.9011 81.0244C94.4069 81.8176 95.1916 82.3925 96.1004 82.6356L96.6149 82.7358C98.5001 83.2185 100.85 81.7295 101.219 79.5756C102.444 74.1521 101.629 63.6377 100.513 56.8755C98.8189 57.6314 96.9428 57.9228 94.2106 57.809Z" fill="#DAF0F5"/>
<path d="M87.9586 194.929C86.3895 194.957 84.8352 195.237 83.3548 195.758C80.1946 196.719 70.6045 198.035 70.6045 198.035C70.6045 198.035 70.4224 202.01 70.4224 205.398C70.4224 207.816 72.9269 209.118 75.4086 209.118C77.0935 209.118 79.1518 207.588 79.1518 207.588L79.3749 205.972L80.3357 206.578C80.3357 206.578 89.6343 200.43 90.3538 198.836C91.0733 197.242 89.8529 194.929 87.9586 194.929Z" fill="#103769"/>
<path d="M70.1809 202.684C78.3229 204.87 81.4239 199.802 81.4239 199.802L85.5587 137.667L69.343 139.889L70.1809 202.684Z" fill="url(#paint4_linear)"/>
<path d="M107.18 205.617C105.612 205.647 104.06 205.927 102.58 206.445C99.4201 207.406 89.8301 208.722 89.8301 208.722C89.8301 208.722 89.6479 212.698 89.6479 216.086C89.6479 218.504 92.1525 219.806 94.657 219.806C96.3419 219.806 98.4001 218.276 98.4001 218.276L98.6232 216.659L99.5886 217.265C99.5886 217.265 108.883 211.118 109.607 209.524C110.331 207.93 109.074 205.617 107.18 205.617Z" fill="#103769"/>
<path d="M89.4022 213.372C97.5487 215.557 100.645 210.489 100.645 210.489L100.918 143.136L84.252 145.076L89.4022 213.372Z" fill="url(#paint5_linear)"/>
<path d="M102.189 102.726C102.412 99.3247 101.815 92.2256 98.2862 89.7757C95.9047 88.1272 90.6861 86.7566 85.2764 86.7566C70.4314 86.7566 69.9123 99.7209 69.9123 103.127C69.9123 110.522 67.7493 139.393 67.7493 139.393C69.3157 140.39 71.9569 143.391 77.2528 144.479C81.2423 145.324 85.306 145.769 89.3838 145.809C94.4611 145.809 99.1104 145.03 102.803 143.24C102.803 143.236 101.715 109.894 102.189 102.726Z" fill="url(#paint6_linear)"/>
<path d="M83.2819 77.959C83.2819 77.959 83.8329 84.0973 82.6945 86.8113C81.8384 88.8377 93.3547 89.8714 91.1234 86.9616C90.0532 85.5636 91.9157 81.4972 91.9157 81.4972L83.2819 77.959Z" fill="#FFC4B1"/>
<path d="M94.0238 65.3317C91.2507 63.8837 84.2061 65.268 82.4894 70.2133C81.4603 73.1777 83.1406 77.6358 83.1406 77.6358C83.1406 77.6358 87.1341 82.8497 88.9419 84.0109C89.3654 84.2887 92.2069 85.6457 93.6596 84.0109C95.1122 82.3761 96.9291 78.0911 96.5648 73.2506C96.2005 68.41 95.8726 66.3017 94.0238 65.3317Z" fill="#FFC4B1"/>
<path d="M94.5568 65.2815C91.5559 62.0939 84.0515 61.3289 80.0761 65.8598C76.1008 70.3907 77.9769 78.9015 80.9869 81.9662C82.7719 83.7876 86.6562 85.0126 89.393 83.3778C92.7718 81.3651 92.9767 71.4472 94.7253 70.9417C99.4384 69.5756 98.5003 64.603 98.5003 64.603C98.5003 64.603 96.8929 67.7632 94.5568 65.2815Z" fill="url(#paint7_radial)"/>
<path d="M118.801 94.1017C112.198 94.6845 104.165 91.9295 98.309 89.7757C96.2416 89.1427 93.901 91.1418 92.9857 93.874C92.8412 94.553 92.7922 95.2488 92.84 95.9413C92.9447 99.1289 94.7252 100.208 97.0248 100.987C103.568 103.204 111.824 102.836 119.092 102.394C120.235 102.329 121.307 101.82 122.08 100.975C122.853 100.13 123.264 99.0164 123.227 97.8721C123.227 97.8357 123.227 97.7628 123.227 97.7309C123.04 95.5679 121.045 94.0106 118.801 94.1017Z" fill="#DAF0F5"/>
<path d="M145.139 78.1685C143.895 78.741 142.614 79.2294 141.305 79.6302C140.553 79.8124 139.256 79.4253 139.247 79.316C139.206 78.888 139.788 78.6694 139.788 78.6694C139.788 78.6694 141.847 78.5419 142.065 78.5556C142.386 78.5622 142.696 78.4453 142.933 78.2291C143.169 78.0129 143.314 77.714 143.336 77.3944L139.925 77.0984C139.252 77.0969 138.593 77.2881 138.026 77.6494C137.206 78.2459 137.334 79.6712 136.501 80.3816C134.529 82.0437 127.052 88.7877 127.052 88.7877L130.672 93.2457C133.732 90.1447 137.502 84.9854 138.254 84.8624C138.682 84.7941 143.176 84.744 144.556 83.3324C145.936 81.9207 145.567 81.4563 146.232 79.4071C146.897 77.358 145.139 78.1685 145.139 78.1685Z" fill="#FFC4B1"/>
<path d="M133.199 82.3306C129.028 86.989 121.36 92.631 116.952 94.926C116.138 95.3992 115.531 96.1603 115.251 97.059C114.972 97.9577 115.039 98.9287 115.44 99.7803C115.44 99.8076 115.681 100.208 115.695 100.236C116.546 101.984 119.197 102.827 121.082 101.72C126.018 99.161 133.518 91.7703 137.981 86.5473C136.296 85.7231 134.88 84.4571 133.199 82.3306Z" fill="#DAF0F5"/>
<defs>
<linearGradient id="paint0_linear" x1="72.0526" y1="107.508" x2="163.846" y2="86.3151" gradientUnits="userSpaceOnUse">
<stop stop-color="#FF946E"/>
<stop offset="0.11" stop-color="#FF906E"/>
<stop offset="0.21" stop-color="#FF856F"/>
<stop offset="0.3" stop-color="#FF7270"/>
<stop offset="0.4" stop-color="#FF5871"/>
<stop offset="0.49" stop-color="#FF3673"/>
<stop offset="0.54" stop-color="#FF1F74"/>
<stop offset="1" stop-color="#8F1B73"/>
</linearGradient>
<linearGradient id="paint1_linear" x1="66191.7" y1="6421.83" x2="81502.1" y2="1185.52" gradientUnits="userSpaceOnUse">
<stop stop-color="#FF946E"/>
<stop offset="0.11" stop-color="#FF906E"/>
<stop offset="0.21" stop-color="#FF856F"/>
<stop offset="0.3" stop-color="#FF7270"/>
<stop offset="0.4" stop-color="#FF5871"/>
<stop offset="0.49" stop-color="#FF3673"/>
<stop offset="0.54" stop-color="#FF1F74"/>
<stop offset="1" stop-color="#8F1B73"/>
</linearGradient>
<linearGradient id="paint2_linear" x1="63834" y1="8141.59" x2="79144.6" y2="2905.57" gradientUnits="userSpaceOnUse">
<stop stop-color="#FF946E"/>
<stop offset="0.11" stop-color="#FF906E"/>
<stop offset="0.21" stop-color="#FF856F"/>
<stop offset="0.3" stop-color="#FF7270"/>
<stop offset="0.4" stop-color="#FF5871"/>
<stop offset="0.49" stop-color="#FF3673"/>
<stop offset="0.54" stop-color="#FF1F74"/>
<stop offset="1" stop-color="#8F1B73"/>
</linearGradient>
<linearGradient id="paint3_linear" x1="76.4331" y1="203.836" x2="21.0376" y2="146.396" gradientUnits="userSpaceOnUse">
<stop stop-color="#E8E7ED"/>
<stop offset="1" stop-color="white"/>
</linearGradient>
<linearGradient id="paint4_linear" x1="77.4486" y1="203.231" x2="77.4486" y2="137.667" gradientUnits="userSpaceOnUse">
<stop offset="0.01" stop-color="#BBC6D1"/>
<stop offset="0.12" stop-color="#B0C6D2"/>
<stop offset="0.31" stop-color="#92C6D5"/>
<stop offset="0.56" stop-color="#62C6DA"/>
<stop offset="0.86" stop-color="#21C7E0"/>
<stop offset="0.99" stop-color="#01C7E3"/>
</linearGradient>
<linearGradient id="paint5_linear" x1="7124.67" y1="36282.9" x2="7124.67" y2="25280.3" gradientUnits="userSpaceOnUse">
<stop offset="0.01" stop-color="#BBC6D1"/>
<stop offset="0.12" stop-color="#B0C6D2"/>
<stop offset="0.31" stop-color="#92C6D5"/>
<stop offset="0.56" stop-color="#62C6DA"/>
<stop offset="0.86" stop-color="#21C7E0"/>
<stop offset="0.99" stop-color="#01C7E3"/>
</linearGradient>
<linearGradient id="paint6_linear" x1="67.7493" y1="116.278" x2="102.803" y2="116.278" gradientUnits="userSpaceOnUse">
<stop stop-color="#00CBF2"/>
<stop offset="1" stop-color="#01275D"/>
</linearGradient>
<radialGradient id="paint7_radial" cx="0" cy="0" r="1" gradientUnits="userSpaceOnUse" gradientTransform="translate(78.1135 63.8197) scale(16.1747)">
<stop stop-color="#FF946E"/>
<stop offset="0.19" stop-color="#FF5971"/>
<stop offset="0.34" stop-color="#FF2F73"/>
<stop offset="0.42" stop-color="#FF1F74"/>
<stop offset="1" stop-color="#8F1B73"/>
</radialGradient>
</defs>
</svg>
